<svg xmlns="http://www.w3.org/2000/svg" width="16.307" height="16.309" viewBox="0 0 16.307 16.309">
  <g id="Grupo_328" data-name="Grupo 328" transform="translate(-837.735 -556.164)">
    <path id="Trazado_359" data-name="Trazado 359" d="M845.861,566.929c-1.679,1.689-3.308,3.336-4.949,4.971a1.844,1.844,0,0,1-2.166.373,1.723,1.723,0,0,1-.964-1.908,2.625,2.625,0,0,1,.649-1.183c1.409-1.464,2.86-2.887,4.3-4.322.164-.163.345-.308.56-.5-.176-.188-.3-.33-.434-.464-1.512-1.514-3.029-3.022-4.534-4.542a1.87,1.87,0,0,1-.376-2.212,1.735,1.735,0,0,1,1.925-.935,2.549,2.549,0,0,1,1.136.632c1.5,1.449,2.961,2.938,4.437,4.412.136.136.279.265.488.464.879-.9,1.733-1.776,2.594-2.649q1.127-1.142,2.268-2.27a1.854,1.854,0,1,1,2.6,2.626c-1.611,1.613-3.228,3.221-4.877,4.866.138.152.249.284.37.406,1.523,1.527,3.058,3.043,4.57,4.582a1.834,1.834,0,0,1-.705,3.1,1.881,1.881,0,0,1-1.992-.571c-1.479-1.5-2.972-2.978-4.46-4.465C846.178,567.22,846.047,567.1,845.861,566.929Z" transform="translate(0 0)" fill="#015287"/>
  </g>
</svg>
