<svg xmlns="http://www.w3.org/2000/svg" width="20.82" height="18.032" viewBox="0 0 20.82 18.032">
  <g id="Grupo_345" data-name="Grupo 345" transform="translate(0 0)">
    <path id="Trazado_373" data-name="Trazado 373" d="M157.267,608.582c-2.651,0-5.3.009-7.953-.007a1.544,1.544,0,0,0-1.6.983,1.534,1.534,0,0,1-1.1,2.757,1.3,1.3,0,0,0,.506,1.672,1.32,1.32,0,0,0-1.544.935,1.166,1.166,0,0,0,.5,1.485,4.43,4.43,0,0,0-1.031.322,2.038,2.038,0,0,0-.6,1.937,1.434,1.434,0,0,0,1.5.955c1.263.006,2.527,0,3.79,0a1.393,1.393,0,0,1,1.516,1.756c-.114.756-.266,1.506-.395,2.26a2.606,2.606,0,0,0,1.218,2.7c1.435.745,2.545-.173,2.412-1.4a2.427,2.427,0,0,1,.518-1.7c.659-.928,1.277-1.886,1.949-2.8a2.111,2.111,0,0,1,.8-.667c.9-.4,1.143-.709,1.144-1.7q0-3.924,0-7.848C158.889,609.1,158.38,608.583,157.267,608.582Z" transform="translate(-144.383 -608.574)" fill="#015287"/>
    <path id="Trazado_374" data-name="Trazado 374" d="M295.276,616.965c0-1.387,0-2.774,0-4.16,0-.66-.247-.9-.907-.9q-1.706-.008-3.413,0c-.694,0-.937.236-.938.925q-.007,4.134,0,8.267c0,.685.253.932.936.936q1.68.009,3.36,0c.724,0,.961-.238.964-.962C295.28,619.7,295.277,618.334,295.276,616.965Z" transform="translate(-274.458 -611.546)" fill="#015287"/>
  </g>
</svg>
