<svg id="Grupo_8" data-name="Grupo 8" xmlns="http://www.w3.org/2000/svg" width="31.433" height="31.433" viewBox="0 0 31.433 31.433">
  <path id="Trazado_17" data-name="Trazado 17" d="M833.4,127.228h-5.33l-2.431-.8-2.412.8h-5.35a7.956,7.956,0,0,1-7.956-7.956V103.752a7.956,7.956,0,0,1,7.956-7.957H833.4a7.956,7.956,0,0,1,7.956,7.957v15.521A7.956,7.956,0,0,1,833.4,127.228Z" transform="translate(-809.925 -95.795)" fill="#015287"/>
  <path id="Trazado_18" data-name="Trazado 18" d="M824.593,109.013v3.421h-3.942v4.488h3.942V128.15h4.852V116.921h3.617l.689-4.488h-4.305v-2.913a2.244,2.244,0,0,1,2.53-2.425h1.958v-3.82a23.879,23.879,0,0,0-3.476-.3C826.911,102.973,824.593,105.122,824.593,109.013Z" transform="translate(-811.303 -96.717)" fill="#fff"/>
</svg>
