<svg xmlns="http://www.w3.org/2000/svg" width="23.404" height="20.049" viewBox="0 0 23.404 20.049">
  <g id="Grupo_463" data-name="Grupo 463" transform="translate(-537.989 -1081.524)">
    <path id="Trazado_402" data-name="Trazado 402" d="M549.693,1101.573q-4.958,0-9.917,0c-1.218,0-1.786-.561-1.786-1.768q0-8.254,0-16.508a1.549,1.549,0,0,1,1.781-1.772H559.6c1.218,0,1.786.56,1.787,1.767q0,8.254,0,16.508a1.55,1.55,0,0,1-1.782,1.773Q554.651,1101.575,549.693,1101.573Zm10.023-4.153c0-4.581,0-9.012,0-13.443,0-.579-.277-.8-.937-.8q-9.082,0-18.164,0c-.722,0-.953.236-.954.963q0,6.352,0,12.7c0,.138.028.276.054.513l6.362-7.667a1.221,1.221,0,0,1,2.127-.066c.839.894,1.66,1.806,2.5,2.7.688.74,1.018.754,1.8.1.213-.177.417-.365.634-.537.658-.521.982-.493,1.567.134.513.55,1.02,1.1,1.532,1.655C557.359,1094.895,558.49,1096.106,559.716,1097.42Z" fill="#707070"/>
    <path id="Trazado_403" data-name="Trazado 403" d="M667.366,1114.718a2.426,2.426,0,0,1-2.474-2.529,2.463,2.463,0,0,1,2.514-2.446,2.507,2.507,0,0,1,2.465,2.517A2.47,2.47,0,0,1,667.366,1114.718Z" transform="translate(-111.834 -24.867)" fill="#707070"/>
  </g>
</svg>
