<svg id="Componente_41_1" data-name="Componente 41 – 1" xmlns="http://www.w3.org/2000/svg" width="31.433" height="31.433" viewBox="0 0 31.433 31.433">
  <path id="Trazado_382" data-name="Trazado 382" d="M8.372,0h14.69a8.372,8.372,0,0,1,8.372,8.372v14.69a8.372,8.372,0,0,1-8.372,8.372H8.372A8.372,8.372,0,0,1,0,23.062V8.372A8.372,8.372,0,0,1,8.372,0Z" fill="#015287"/>
  <g id="Grupo_7" data-name="Grupo 7" transform="translate(-0.037)">
    <g id="Grupo_6" data-name="Grupo 6" transform="translate(6.615 6.647)">
      <g id="Grupo_5" data-name="Grupo 5">
        <g id="Grupo_4" data-name="Grupo 4">
          <path id="Trazado_14" data-name="Trazado 14" d="M833.33,162.048a1.067,1.067,0,1,0,1.067,1.068A1.068,1.068,0,0,0,833.33,162.048Z" transform="translate(-819.409 -158.798)" fill="#fff"/>
          <path id="Trazado_15" data-name="Trazado 15" d="M827.382,163.618a4.483,4.483,0,1,0,4.483,4.483A4.488,4.488,0,0,0,827.382,163.618Zm0,7.355a2.872,2.872,0,1,1,2.872-2.872A2.875,2.875,0,0,1,827.382,170.973Z" transform="translate(-818.207 -159)" fill="#fff"/>
          <path id="Trazado_16" data-name="Trazado 16" d="M830.25,176.522h-7.268a5.474,5.474,0,0,1-5.467-5.468v-7.268a5.473,5.473,0,0,1,5.467-5.467h7.268a5.473,5.473,0,0,1,5.467,5.467v7.268A5.474,5.474,0,0,1,830.25,176.522Zm-7.268-16.491a3.759,3.759,0,0,0-3.756,3.755v7.268a3.76,3.76,0,0,0,3.756,3.756h7.268A3.76,3.76,0,0,0,834,171.054v-7.268a3.759,3.759,0,0,0-3.755-3.755Z" transform="translate(-817.515 -158.319)" fill="#fff"/>
        </g>
      </g>
    </g>
  </g>
</svg>
