<svg xmlns="http://www.w3.org/2000/svg" width="20.821" height="18.034" viewBox="0 0 20.821 18.034">
  <g id="Grupo_344" data-name="Grupo 344" transform="translate(0)">
    <path id="Trazado_371" data-name="Trazado 371" d="M-44.019,615.535c-1.245,0-2.491,0-3.736,0a1.4,1.4,0,0,1-1.529-1.793c.115-.738.262-1.47.389-2.206A2.634,2.634,0,0,0-50,608.882a1.754,1.754,0,0,0-1.777-.162,1.6,1.6,0,0,0-.755,1.534,3.258,3.258,0,0,1-.4,1.455c-.646,1.062-1.372,2.077-2.108,3.081a2.078,2.078,0,0,1-.828.623,1.443,1.443,0,0,0-1.054,1.493q-.014,4.084,0,8.167a1.37,1.37,0,0,0,1.5,1.5c2.74.011,5.479,0,8.219.006a1.466,1.466,0,0,0,1.451-.962,1.356,1.356,0,0,0-.5-1.987c.824.094,1.295-.1,1.579-.715a1.308,1.308,0,0,0-.5-1.757,1.31,1.31,0,0,0,1.6-1,1.133,1.133,0,0,0-.516-1.392,4.406,4.406,0,0,0,1.052-.358,2.024,2.024,0,0,0,.559-1.949A1.449,1.449,0,0,0-44.019,615.535Z" transform="translate(63.244 -608.544)" fill="#015287"/>
    <path id="Trazado_372" data-name="Trazado 372" d="M-111.673,679.2q-1.707-.01-3.413,0c-.681,0-.924.25-.927.944-.006,1.387,0,2.774,0,4.161s-.007,2.774,0,4.161c0,.605.25.857.837.862q1.787.015,3.573,0c.587,0,.846-.257.848-.853q.012-4.188,0-8.375C-110.756,679.453-111.018,679.2-111.673,679.2Z" transform="translate(116.019 -671.65)" fill="#015287"/>
  </g>
</svg>
