<svg xmlns="http://www.w3.org/2000/svg" width="139.115" height="41.198" viewBox="0 0 139.115 41.198">
  <g id="Grupo_121" data-name="Grupo 121" transform="translate(225.031 97.123)">
    <g id="Grupo_116" data-name="Grupo 116" transform="translate(-178.589 -60.57)">
      <path id="Trazado_177" data-name="Trazado 177" d="M-33.668,54.555H27.506a.877.877,0,0,0,0-1.754H-33.668a.877.877,0,0,0-.877.877A.877.877,0,0,0-33.668,54.555Z" transform="translate(34.545 -52.801)" fill="#015287"/>
      <path id="Trazado_178" data-name="Trazado 178" d="M27.506,64.663H-33.668a.877.877,0,0,0-.877.877.877.877,0,0,0,.877.877H27.506a.877.877,0,0,0,0-1.754Z" transform="translate(34.545 -61.771)" fill="#015287"/>
    </g>
    <g id="Grupo_117" data-name="Grupo 117" transform="translate(-164.017 -97.123)">
      <path id="Trazado_179" data-name="Trazado 179" d="M26.084-95.464c.132-.006,13.324-.448,26.4,9.9a.825.825,0,0,0,.659.328.82.82,0,0,0,.644-.315C66.86-95.9,80.045-95.471,80.209-95.464a.831.831,0,0,0,.861-.788.825.825,0,0,0-.787-.862c-.56-.025-13.679-.485-27.137,9.973-13.457-10.458-26.578-10-27.136-9.973a.825.825,0,0,0-.787.861A.824.824,0,0,0,26.084-95.464Z" transform="translate(-25.223 97.123)" fill="#015287"/>
      <path id="Trazado_180" data-name="Trazado 180" d="M80.283-85.251c-.56-.025-13.679-.485-27.136,9.973-13.457-10.458-26.578-10-27.136-9.973a.825.825,0,0,0-.787.861.824.824,0,0,0,.861.788c.133-.006,13.421-.451,26.548,10.019l0,0,.019.013a.831.831,0,0,0,.124.077l.046.02a.775.775,0,0,0,.116.04l.044.011a.813.813,0,0,0,.162.018h0a.813.813,0,0,0,.162-.018l.044-.011a.8.8,0,0,0,.116-.04l.046-.02a.851.851,0,0,0,.124-.077l.019-.013,0,0C66.788-84.053,80.076-83.607,80.21-83.6a.829.829,0,0,0,.861-.788A.825.825,0,0,0,80.283-85.251Z" transform="translate(-25.223 88.153)" fill="#015287"/>
    </g>
    <g id="Grupo_118" data-name="Grupo 118" transform="translate(-178.498 -82.605)">
      <path id="Trazado_181" data-name="Trazado 181" d="M-14.62-27.446h-16.1c-.589,0-.715.168-.673.8a7.784,7.784,0,0,0,2.313,5.172,7.834,7.834,0,0,0,5.55,2.565,7.538,7.538,0,0,0,5.34-2.313c.967-1.177,1.556-1.6,2.523-1.009a1.366,1.366,0,0,1,.168,2.144,6.483,6.483,0,0,1-.5.547,10.229,10.229,0,0,1-7.526,3.153A10.352,10.352,0,0,1-31.06-19.5a10.353,10.353,0,0,1-3.111-7.527,10.19,10.19,0,0,1,3.111-7.484,10.15,10.15,0,0,1,7.526-3.07,10.151,10.151,0,0,1,7.526,3.07,9.235,9.235,0,0,1,2.649,5.382C-13.274-28.5-13.442-27.446-14.62-27.446Zm-2.06-3.49a6.365,6.365,0,0,0-1.3-1.64,7.728,7.728,0,0,0-5.55-2.481,7.75,7.75,0,0,0-5.592,2.481,10.025,10.025,0,0,0-1.472,1.85c-.294.547-.084.589.589.589h12.95C-16.175-30.137-16.428-30.515-16.68-30.936Z" transform="translate(34.171 37.579)"/>
      <path id="Trazado_182" data-name="Trazado 182" d="M75.748-22.274v2.607a1.032,1.032,0,0,1-.378.883,10.638,10.638,0,0,1-6.685,2.4,10.614,10.614,0,0,1-10.6-10.638,10.543,10.543,0,0,1,10.6-10.553,10.564,10.564,0,0,1,6.727,2.355,1.119,1.119,0,0,1,.336.841v2.312c0,.631-.252.925-.925.084a7.978,7.978,0,0,0-6.138-3.069,8,8,0,0,0-7.9,8.031,8.077,8.077,0,0,0,7.9,8.115,7.943,7.943,0,0,0,6.391-3.49C75.328-22.737,75.748-22.989,75.748-22.274Z" transform="translate(-35.595 37.579)"/>
      <path id="Trazado_183" data-name="Trazado 183" d="M147.018-37.579a9.618,9.618,0,0,1,7.442,3.238c.126.21.547.336.547-.21v-1.219a1.31,1.31,0,0,1,1.3-1.3h.084a1.31,1.31,0,0,1,1.3,1.3V-18.2a1.31,1.31,0,0,1-1.3,1.3h-.084a1.31,1.31,0,0,1-1.3-1.3v-1.261c0-.5-.294-.42-.379-.294a9.745,9.745,0,0,1-7.526,3.364,10.624,10.624,0,0,1-10.721-10.553A10.623,10.623,0,0,1,147.018-37.579ZM147.1-18.91a7.968,7.968,0,0,0,7.863-8.031,8.113,8.113,0,0,0-7.947-8.115,8.085,8.085,0,0,0-7.946,8.115A8.084,8.084,0,0,0,147.1-18.91Z" transform="translate(-94.799 37.579)"/>
      <path id="Trazado_184" data-name="Trazado 184" d="M258.02-26.941A10.624,10.624,0,0,1,247.3-16.388a9.745,9.745,0,0,1-7.526-3.364c-.084-.126-.378-.21-.378.253v7.19a1.275,1.275,0,0,1-1.3,1.261h-.084a1.239,1.239,0,0,1-1.261-1.261V-35.771a1.274,1.274,0,0,1,1.261-1.3h.084a1.31,1.31,0,0,1,1.3,1.3v1.219c0,.547.378.421.547.21a9.617,9.617,0,0,1,7.442-3.238A10.623,10.623,0,0,1,258.02-26.941Zm-2.691,0a8.113,8.113,0,0,0-7.946-8.115,8.113,8.113,0,0,0-7.947,8.115A7.968,7.968,0,0,0,247.3-18.91,8.084,8.084,0,0,0,255.329-26.941Z" transform="translate(-170.694 37.579)"/>
    </g>
    <g id="Grupo_119" data-name="Grupo 119" transform="translate(-225.031 -96.606)">
      <path id="Trazado_185" data-name="Trazado 185" d="M-170.7-92.462c-.738,1.559-17.065,36.838-17.065,36.838-.574,1.313-1.559,1.313-2.215,0,0,0-3.528-7.794-7.384-16.162-.41-.821-.492-.9-.9.082-3.938,8.368-7.384,16.081-7.384,16.081-.656,1.313-1.641,1.313-2.215,0,0,0-16.327-35.279-16.9-36.509-.656-1.477-.082-2.871,1.723-2.871h.492c2.215,0,2.872.656,3.61,2.3,0,0,9.927,23.546,10.748,25.187a11.834,11.834,0,0,1,.985,2.461c.328,1.149.574,1.231.9,0a14.471,14.471,0,0,1,.9-2.3c.328-.738,2.379-5.415,4.512-10.584.328-.738.328-.574,0-1.395-3.118-6.728-5.743-12.389-5.907-12.8-.656-1.477-.164-2.871,1.723-2.871h.41c2.215,0,2.872.656,3.61,2.3,0,0,1.149,2.871,2.789,6.728.328.738.574.738.9,0,1.641-3.856,2.789-6.728,2.789-6.728.9-1.969,1.559-2.3,3.61-2.3h.492c1.23,0,2.543,1.066,1.8,2.543-.246.656-2.953,6.482-6.071,13.291-.246.492-.328.656-.082,1.066,2.215,5.169,4.184,9.845,4.594,10.584.246.492.82,2.051.984,2.461.328,1.149.492,1.231.821,0,.082-.328.656-1.723.9-2.3.738-1.723,10.912-25.351,10.912-25.351.9-1.969,1.559-2.3,3.61-2.3h.41A1.844,1.844,0,0,1-170.7-92.462Z" transform="translate(225.031 95.005)" fill="#015287"/>
    </g>
    <g id="Grupo_120" data-name="Grupo 120" transform="translate(-90.86 -83.061)">
      <path id="Trazado_186" data-name="Trazado 186" d="M330.228-36.675c-.029.131-.047.265-.087.392a2.4,2.4,0,0,1-1.9,1.737,2.462,2.462,0,0,1-2.9-1.885,2.477,2.477,0,0,1,1.893-2.961c.12-.025.243-.038.364-.056h.318c.113.017.227.027.338.053a2.433,2.433,0,0,1,1.878,1.72c.043.131.062.269.093.4Zm-.257-.295a2.212,2.212,0,0,0-2.206-2.21,2.213,2.213,0,0,0-2.213,2.2,2.214,2.214,0,0,0,2.2,2.213A2.213,2.213,0,0,0,329.971-36.97Z" transform="translate(-325.283 39.449)"/>
      <path id="Trazado_187" data-name="Trazado 187" d="M331.107-35.644c.412,0,.819-.008,1.226,0a1.494,1.494,0,0,1,.436.092.638.638,0,0,1,.438.519.827.827,0,0,1-.161.692.931.931,0,0,1-.487.306,1.447,1.447,0,0,1,.552.606c.151.233.3.467.454.708-.027,0-.045.005-.063.005-.212,0-.425,0-.637,0a.089.089,0,0,1-.089-.05q-.213-.358-.429-.713c-.029-.047-.061-.092-.089-.139a.421.421,0,0,0-.489-.214v1.11h-.66Zm.662.484v.828c.108,0,.212,0,.315,0a.452.452,0,0,0,.346-.165.431.431,0,0,0,.067-.424.311.311,0,0,0-.283-.215C332.07-35.155,331.921-35.153,331.769-35.16Z" transform="translate(-329.687 36.574)"/>
    </g>
  </g>
</svg>
