<svg id="Grupo_98" data-name="Grupo 98" xmlns="http://www.w3.org/2000/svg" width="15.362" height="23.456" viewBox="0 0 15.362 23.456">
  <path id="Trazado_21" data-name="Trazado 21" d="M34.506,218.5a7.694,7.694,0,1,1-3.489-.836A7.679,7.679,0,0,1,34.506,218.5Z" transform="translate(-23.337 -209.57)" fill="#ffce68"/>
  <path id="Trazado_22" data-name="Trazado 22" d="M33.5,235.194a7.367,7.367,0,1,1,3.346-13.931,7.365,7.365,0,0,1,4.021,6.564,7.367,7.367,0,0,1-7.367,7.367Z" transform="translate(-25.82 -212.053)" fill="#fdbc62"/>
  <path id="Trazado_23" data-name="Trazado 23" d="M40.6,241.391a6.469,6.469,0,1,1,4.574-1.895A6.426,6.426,0,0,1,40.6,241.391Z" transform="translate(-32.914 -219.148)" fill="none" stroke="#c49047" stroke-miterlimit="10" stroke-width="1.958"/>
  <path id="Trazado_24" data-name="Trazado 24" d="M57.041,255.754a4.386,4.386,0,1,1,3.1-1.285A4.357,4.357,0,0,1,57.041,255.754Z" transform="translate(-49.36 -235.593)" fill="none" stroke="#fdbc62" stroke-miterlimit="10" stroke-width="1.399"/>
  <path id="Trazado_25" data-name="Trazado 25" d="M49.5,249.168a5.341,5.341,0,1,1,2.426-10.1,5.34,5.34,0,0,1,2.915,4.759,5.341,5.341,0,0,1-5.341,5.341Z" transform="translate(-41.82 -228.053)" fill="none" stroke="#c49047" stroke-miterlimit="10" stroke-width="1.958"/>
  <path id="Trazado_26" data-name="Trazado 26" d="M65.459,206a3.7,3.7,0,0,1,.322,1.382,7.695,7.695,0,0,0-7.151.091A3.705,3.705,0,0,1,58.954,206l.1-.216a.769.769,0,0,1,.6-.448l.286-.04a16.416,16.416,0,0,1,4.549,0l.286.04a.769.769,0,0,1,.6.448Zm-.77.212v-.284a.149.149,0,0,0-.149-.149H59.872a.149.149,0,0,0-.149.149v.284a.149.149,0,0,0,.149.149h4.668A.149.149,0,0,0,64.689,206.21Z" transform="translate(-54.664 -198.45)" fill="#fdbc62"/>
  <g id="Grupo_12" data-name="Grupo 12" transform="translate(5.322)">
    <path id="Trazado_27" data-name="Trazado 27" d="M101.116,145.648l-2.663,7.437h-1.48l2.655-7.431v-.006Z" transform="translate(-94.019 -145.648)" fill="#4db1e8"/>
    <path id="Trazado_28" data-name="Trazado 28" d="M88.088,145.648v.006l-2.655,7.431H83.971l2.655-7.431v-.006Z" transform="translate(-82.479 -145.648)" fill="#296c91"/>
    <path id="Trazado_29" data-name="Trazado 29" d="M74.837,145.648v.006l-2.655,7.431H70.689l2.663-7.437Z" transform="translate(-70.689 -145.648)" fill="#015287"/>
  </g>
  <circle id="Elipse_1" data-name="Elipse 1" cx="4.386" cy="4.386" r="4.386" transform="translate(5.661 19.698) rotate(-84.235)" fill="#ffdeae"/>
  <g id="Grupo_13" data-name="Grupo 13" transform="translate(2.658)">
    <path id="Trazado_30" data-name="Trazado 30" d="M46.987,145.648l2.663,7.437h1.48l-2.655-7.431v-.006Z" transform="translate(-46.987 -145.648)" fill="#015287"/>
    <path id="Trazado_31" data-name="Trazado 31" d="M60.224,145.648v.006l2.655,7.431H64.34l-2.655-7.431v-.006Z" transform="translate(-58.736 -145.648)" fill="#296c91"/>
    <path id="Trazado_32" data-name="Trazado 32" d="M73.225,145.648v.006l2.655,7.431h1.493l-2.663-7.437Z" transform="translate(-70.277 -145.648)" fill="#4db1e8"/>
  </g>
  <circle id="Elipse_2" data-name="Elipse 2" cx="4.1" cy="4.1" r="4.1" transform="translate(5.744 19.141) rotate(-80.495)" fill="#ffce68"/>
  <circle id="Elipse_3" data-name="Elipse 3" cx="3.122" cy="3.122" r="3.122" transform="translate(6.87 18.339) rotate(-80.502)" fill="#c49047"/>
  <g id="Grupo_14" data-name="Grupo 14" transform="translate(9.138 13.782)">
    <path id="Trazado_33" data-name="Trazado 33" d="M107.3,272.263h-2.653v-.694h.838v-2.1h-.838v-.649a2.9,2.9,0,0,0,.368-.023.973.973,0,0,0,.294-.079.5.5,0,0,0,.208-.173.55.55,0,0,0,.08-.267h.883v3.291h.819Z" transform="translate(-104.649 -268.278)" fill="#ffce68"/>
  </g>
  <g id="Grupo_73" data-name="Grupo 73" transform="translate(6.54 14.409)">
    <g id="Grupo_15" data-name="Grupo 15" transform="translate(0.11 0)">
      <path id="Trazado_34" data-name="Trazado 34" d="M82.642,273.855h0a1.573,1.573,0,0,0,.067.473,1.064,1.064,0,0,1,.011.479.915.915,0,0,1-.206-.38A1.822,1.822,0,0,1,82.642,273.855Z" transform="translate(-82.512 -273.855)" fill="#c49047"/>
      <path id="Trazado_35" data-name="Trazado 35" d="M83.713,274.02a3.1,3.1,0,0,1,.157.356.6.6,0,0,1-.075.382.132.132,0,0,1-.051.056,1.064,1.064,0,0,0-.011-.479,1.574,1.574,0,0,1-.067-.473A.778.778,0,0,0,83.713,274.02Z" transform="translate(-83.538 -273.861)" fill="#ffdeae"/>
    </g>
    <g id="Grupo_16" data-name="Grupo 16" transform="translate(0.311 0.264)">
      <path id="Trazado_36" data-name="Trazado 36" d="M84.868,276.2h0a1.57,1.57,0,0,0-.262.4,1.065,1.065,0,0,1-.309.367.913.913,0,0,1,.1-.421A1.82,1.82,0,0,1,84.868,276.2Z" transform="translate(-84.297 -276.202)" fill="#c49047"/>
      <path id="Trazado_37" data-name="Trazado 37" d="M84.8,276.357a3.13,3.13,0,0,1-.117.371.6.6,0,0,1-.309.238.132.132,0,0,1-.075.008,1.065,1.065,0,0,0,.309-.367,1.571,1.571,0,0,1,.262-.4A.77.77,0,0,0,84.8,276.357Z" transform="translate(-84.297 -276.207)" fill="#ffdeae"/>
    </g>
    <g id="Grupo_19" data-name="Grupo 19" transform="translate(0.014 0.668)">
      <g id="Grupo_17" data-name="Grupo 17">
        <path id="Trazado_38" data-name="Trazado 38" d="M81.713,279.8h0a1.578,1.578,0,0,0,.135.458,1.066,1.066,0,0,1,.081.473.913.913,0,0,1-.259-.345A1.823,1.823,0,0,1,81.713,279.8Z" transform="translate(-81.657 -279.798)" fill="#c49047"/>
        <path id="Trazado_39" data-name="Trazado 39" d="M82.226,279.955a3.115,3.115,0,0,1,.208.329.6.6,0,0,1-.018.389.132.132,0,0,1-.042.063,1.065,1.065,0,0,0-.081-.473,1.579,1.579,0,0,1-.135-.458A.784.784,0,0,0,82.226,279.955Z" transform="translate(-82.102 -279.804)" fill="#ffdeae"/>
      </g>
      <g id="Grupo_18" data-name="Grupo 18" transform="translate(0.265 0.167)">
        <path id="Trazado_40" data-name="Trazado 40" d="M84.481,281.283h0a1.576,1.576,0,0,0-.2.433,1.065,1.065,0,0,1-.251.408.914.914,0,0,1,.033-.431A1.821,1.821,0,0,1,84.481,281.283Z" transform="translate(-84.017 -281.283)" fill="#c49047"/>
        <path id="Trazado_41" data-name="Trazado 41" d="M84.528,281.447a3.149,3.149,0,0,1-.061.384.6.6,0,0,1-.271.28.132.132,0,0,1-.073.019,1.065,1.065,0,0,0,.251-.408,1.577,1.577,0,0,1,.2-.433A.776.776,0,0,0,84.528,281.447Z" transform="translate(-84.111 -281.288)" fill="#ffdeae"/>
      </g>
    </g>
    <g id="Grupo_22" data-name="Grupo 22" transform="translate(0 1.393)">
      <g id="Grupo_20" data-name="Grupo 20">
        <path id="Trazado_42" data-name="Trazado 42" d="M81.533,286.249h0a1.576,1.576,0,0,0,.238.414,1.065,1.065,0,0,1,.188.441.914.914,0,0,1-.332-.276A1.824,1.824,0,0,1,81.533,286.249Z" transform="translate(-81.533 -286.249)" fill="#c49047"/>
        <path id="Trazado_43" data-name="Trazado 43" d="M81.638,286.385a3.152,3.152,0,0,1,.278.272.6.6,0,0,1,.072.383.132.132,0,0,1-.026.071,1.065,1.065,0,0,0-.188-.441,1.575,1.575,0,0,1-.238-.414A.771.771,0,0,0,81.638,286.385Z" transform="translate(-81.537 -286.254)" fill="#ffdeae"/>
      </g>
      <g id="Grupo_21" data-name="Grupo 21" transform="translate(0.372 0.006)">
        <path id="Trazado_44" data-name="Trazado 44" d="M85.166,286.3h0a1.573,1.573,0,0,0-.095.468,1.066,1.066,0,0,1-.15.455.915.915,0,0,1-.067-.427A1.82,1.82,0,0,1,85.166,286.3Z" transform="translate(-84.845 -286.305)" fill="#c49047"/>
        <path id="Trazado_45" data-name="Trazado 45" d="M85.761,286.477a3.126,3.126,0,0,1,.03.388.6.6,0,0,1-.2.335.132.132,0,0,1-.066.036,1.066,1.066,0,0,0,.15-.455,1.574,1.574,0,0,1,.095-.468A.778.778,0,0,0,85.761,286.477Z" transform="translate(-85.449 -286.311)" fill="#ffdeae"/>
      </g>
    </g>
    <g id="Grupo_25" data-name="Grupo 25" transform="translate(0.082 2.003)">
      <g id="Grupo_23" data-name="Grupo 23" transform="translate(0 0.07)">
        <path id="Trazado_46" data-name="Trazado 46" d="M82.261,292.3h0a1.575,1.575,0,0,0,.282.385,1.065,1.065,0,0,1,.235.418.915.915,0,0,1-.361-.238A1.828,1.828,0,0,1,82.261,292.3Z" transform="translate(-82.261 -292.298)" fill="#c49047"/>
        <path id="Trazado_47" data-name="Trazado 47" d="M82.381,292.422a3.122,3.122,0,0,1,.306.239.6.6,0,0,1,.114.373.132.132,0,0,1-.018.073,1.065,1.065,0,0,0-.235-.418,1.575,1.575,0,0,1-.282-.385A.776.776,0,0,0,82.381,292.422Z" transform="translate(-82.265 -292.303)" fill="#ffdeae"/>
      </g>
      <g id="Grupo_24" data-name="Grupo 24" transform="translate(0.432)">
        <path id="Trazado_48" data-name="Trazado 48" d="M86.361,291.676h0a1.572,1.572,0,0,0-.043.475,1.065,1.065,0,0,1-.1.469.914.914,0,0,1-.114-.417A1.826,1.826,0,0,1,86.361,291.676Z" transform="translate(-86.102 -291.676)" fill="#c49047"/>
        <path id="Trazado_49" data-name="Trazado 49" d="M87.289,291.849a3.113,3.113,0,0,1,.072.382.6.6,0,0,1-.16.355.132.132,0,0,1-.062.043,1.065,1.065,0,0,0,.1-.469,1.572,1.572,0,0,1,.043-.475A.771.771,0,0,0,87.289,291.849Z" transform="translate(-87.022 -291.683)" fill="#ffdeae"/>
      </g>
    </g>
    <g id="Grupo_28" data-name="Grupo 28" transform="translate(0.263 2.543)">
      <g id="Grupo_26" data-name="Grupo 26" transform="translate(0 0.197)">
        <path id="Trazado_50" data-name="Trazado 50" d="M83.869,298.231h0a1.573,1.573,0,0,0,.348.327,1.065,1.065,0,0,1,.309.367.913.913,0,0,1-.4-.167A1.822,1.822,0,0,1,83.869,298.231Z" transform="translate(-83.869 -298.231)" fill="#c49047"/>
        <path id="Trazado_51" data-name="Trazado 51" d="M84.009,298.331a3.144,3.144,0,0,1,.345.179.6.6,0,0,1,.181.345.131.131,0,0,1,0,.075,1.065,1.065,0,0,0-.309-.367,1.575,1.575,0,0,1-.348-.327A.775.775,0,0,0,84.009,298.331Z" transform="translate(-83.873 -298.235)" fill="#ffdeae"/>
      </g>
      <g id="Grupo_27" data-name="Grupo 27" transform="translate(0.511)">
        <path id="Trazado_52" data-name="Trazado 52" d="M88.574,296.482h0a1.575,1.575,0,0,0,.046.475,1.065,1.065,0,0,1-.01.479.914.914,0,0,1-.189-.388A1.822,1.822,0,0,1,88.574,296.482Z" transform="translate(-88.42 -296.482)" fill="#c49047"/>
        <path id="Trazado_53" data-name="Trazado 53" d="M89.813,296.649a3.116,3.116,0,0,1,.142.362.6.6,0,0,1-.092.379.132.132,0,0,1-.053.053,1.065,1.065,0,0,0,.01-.479,1.575,1.575,0,0,1-.046-.475A.776.776,0,0,0,89.813,296.649Z" transform="translate(-89.621 -296.488)" fill="#ffdeae"/>
      </g>
    </g>
    <g id="Grupo_31" data-name="Grupo 31" transform="translate(0.544 3.041)">
      <g id="Grupo_29" data-name="Grupo 29" transform="translate(0 0.31)">
        <path id="Trazado_54" data-name="Trazado 54" d="M86.374,303.672h0a1.573,1.573,0,0,0,.4.26,1.065,1.065,0,0,1,.368.307.913.913,0,0,1-.421-.094A1.824,1.824,0,0,1,86.374,303.672Z" transform="translate(-86.374 -303.672)" fill="#c49047"/>
        <path id="Trazado_55" data-name="Trazado 55" d="M86.53,303.746a3.127,3.127,0,0,1,.371.115.6.6,0,0,1,.239.308.132.132,0,0,1,.009.075,1.065,1.065,0,0,0-.368-.307,1.571,1.571,0,0,1-.4-.26A.771.771,0,0,0,86.53,303.746Z" transform="translate(-86.38 -303.676)" fill="#ffdeae"/>
      </g>
      <g id="Grupo_30" data-name="Grupo 30" transform="translate(0.558)">
        <path id="Trazado_56" data-name="Trazado 56" d="M91.4,300.913h0a1.572,1.572,0,0,0,.128.46,1.066,1.066,0,0,1,.074.474.914.914,0,0,1-.254-.349A1.821,1.821,0,0,1,91.4,300.913Z" transform="translate(-91.337 -300.913)" fill="#c49047"/>
        <path id="Trazado_57" data-name="Trazado 57" d="M91.965,301.071a3.1,3.1,0,0,1,.2.332.6.6,0,0,1-.024.389.133.133,0,0,1-.043.062,1.066,1.066,0,0,0-.074-.474,1.573,1.573,0,0,1-.128-.46A.778.778,0,0,0,91.965,301.071Z" transform="translate(-91.836 -300.919)" fill="#ffdeae"/>
      </g>
    </g>
    <g id="Grupo_34" data-name="Grupo 34" transform="translate(1.005 3.51)">
      <g id="Grupo_32" data-name="Grupo 32" transform="translate(0 0.452)">
        <path id="Trazado_58" data-name="Trazado 58" d="M90.475,309.1h0a1.577,1.577,0,0,0,.452.155,1.066,1.066,0,0,1,.432.208.915.915,0,0,1-.432.011A1.822,1.822,0,0,1,90.475,309.1Z" transform="translate(-90.475 -309.104)" fill="#c49047"/>
        <path id="Trazado_59" data-name="Trazado 59" d="M90.644,309.137a3.15,3.15,0,0,1,.388.021.6.6,0,0,1,.306.24.132.132,0,0,1,.027.07,1.065,1.065,0,0,0-.432-.208,1.573,1.573,0,0,1-.452-.155A.772.772,0,0,0,90.644,309.137Z" transform="translate(-90.481 -309.106)" fill="#ffdeae"/>
      </g>
      <g id="Grupo_33" data-name="Grupo 33" transform="translate(0.526)">
        <path id="Trazado_60" data-name="Trazado 60" d="M95.158,305.082h0a1.574,1.574,0,0,0,.237.415,1.065,1.065,0,0,1,.187.441.915.915,0,0,1-.332-.277A1.825,1.825,0,0,1,95.158,305.082Z" transform="translate(-95.158 -305.082)" fill="#c49047"/>
        <path id="Trazado_61" data-name="Trazado 61" d="M95.263,305.218a3.124,3.124,0,0,1,.278.272.6.6,0,0,1,.071.383.132.132,0,0,1-.026.071,1.065,1.065,0,0,0-.187-.441,1.574,1.574,0,0,1-.237-.415A.774.774,0,0,0,95.263,305.218Z" transform="translate(-95.162 -305.087)" fill="#ffdeae"/>
      </g>
    </g>
    <g id="Grupo_37" data-name="Grupo 37" transform="translate(1.507 3.928)">
      <g id="Grupo_35" data-name="Grupo 35" transform="translate(0 0.471)">
        <path id="Trazado_62" data-name="Trazado 62" d="M94.946,312.994h0a1.576,1.576,0,0,0,.457.139,1.065,1.065,0,0,1,.439.192.914.914,0,0,1-.431.027A1.819,1.819,0,0,1,94.946,312.994Z" transform="translate(-94.946 -312.994)" fill="#c49047"/>
        <path id="Trazado_63" data-name="Trazado 63" d="M95.116,313.022a3.128,3.128,0,0,1,.389.007.6.6,0,0,1,.315.229.132.132,0,0,1,.029.069,1.064,1.064,0,0,0-.439-.192,1.576,1.576,0,0,1-.457-.139A.778.778,0,0,0,95.116,313.022Z" transform="translate(-94.952 -312.997)" fill="#ffdeae"/>
      </g>
      <g id="Grupo_36" data-name="Grupo 36" transform="translate(0.51)">
        <path id="Trazado_64" data-name="Trazado 64" d="M99.48,308.8h0a1.577,1.577,0,0,0,.252.406,1.065,1.065,0,0,1,.2.434.914.914,0,0,1-.342-.264A1.825,1.825,0,0,1,99.48,308.8Z" transform="translate(-99.48 -308.805)" fill="#c49047"/>
        <path id="Trazado_65" data-name="Trazado 65" d="M99.589,308.938a3.092,3.092,0,0,1,.287.262.6.6,0,0,1,.085.38.132.132,0,0,1-.024.071,1.065,1.065,0,0,0-.2-.434,1.577,1.577,0,0,1-.252-.406A.78.78,0,0,0,99.589,308.938Z" transform="translate(-99.483 -308.81)" fill="#ffdeae"/>
      </g>
    </g>
    <g id="Grupo_38" data-name="Grupo 38" transform="translate(2.153 4.694)">
      <path id="Trazado_66" data-name="Trazado 66" d="M100.692,316.683h0a1.578,1.578,0,0,0,.477.01,1.065,1.065,0,0,1,.475.067.913.913,0,0,1-.408.142A1.825,1.825,0,0,1,100.692,316.683Z" transform="translate(-100.692 -316.564)" fill="#c49047"/>
      <path id="Trazado_67" data-name="Trazado 67" d="M100.863,315.722a3.149,3.149,0,0,1,.376-.1.6.6,0,0,1,.365.136.132.132,0,0,1,.047.059,1.065,1.065,0,0,0-.475-.067,1.577,1.577,0,0,1-.477-.01A.775.775,0,0,0,100.863,315.722Z" transform="translate(-100.698 -315.622)" fill="#ffdeae"/>
    </g>
    <g id="Grupo_39" data-name="Grupo 39" transform="translate(2.911 4.862)">
      <path id="Trazado_68" data-name="Trazado 68" d="M107.436,318.2h0a1.577,1.577,0,0,0,.472-.07,1.065,1.065,0,0,1,.479-.014.913.913,0,0,1-.378.208A1.828,1.828,0,0,1,107.436,318.2Z" transform="translate(-107.436 -317.984)" fill="#c49047"/>
      <path id="Trazado_69" data-name="Trazado 69" d="M107.6,317.286a3.12,3.12,0,0,1,.355-.16.6.6,0,0,1,.383.073.132.132,0,0,1,.056.05,1.065,1.065,0,0,0-.479.014,1.58,1.58,0,0,1-.472.07A.774.774,0,0,0,107.6,317.286Z" transform="translate(-107.442 -317.117)" fill="#ffdeae"/>
    </g>
    <g id="Grupo_40" data-name="Grupo 40" transform="translate(2.517 4.222)">
      <path id="Trazado_70" data-name="Trazado 70" d="M103.928,311.425h0a1.576,1.576,0,0,0,.352.323,1.066,1.066,0,0,1,.313.364.913.913,0,0,1-.4-.163A1.821,1.821,0,0,1,103.928,311.425Z" transform="translate(-103.928 -311.425)" fill="#c49047"/>
      <path id="Trazado_71" data-name="Trazado 71" d="M104.069,311.523a3.16,3.16,0,0,1,.347.175.6.6,0,0,1,.185.343.132.132,0,0,1,0,.075,1.066,1.066,0,0,0-.313-.364,1.575,1.575,0,0,1-.352-.323A.767.767,0,0,0,104.069,311.523Z" transform="translate(-103.932 -311.429)" fill="#ffdeae"/>
    </g>
    <g id="Grupo_41" data-name="Grupo 41" transform="translate(3.16 4.501)">
      <path id="Trazado_72" data-name="Trazado 72" d="M109.65,313.9h0a1.381,1.381,0,0,0,.352.225.933.933,0,0,1,.325.266.8.8,0,0,1-.37-.079A1.6,1.6,0,0,1,109.65,313.9Z" transform="translate(-109.65 -313.903)" fill="#c49047"/>
      <path id="Trazado_73" data-name="Trazado 73" d="M109.787,313.967a2.728,2.728,0,0,1,.326.1.524.524,0,0,1,.212.267.116.116,0,0,1,.008.065.933.933,0,0,0-.325-.266,1.382,1.382,0,0,1-.352-.225A.673.673,0,0,0,109.787,313.967Z" transform="translate(-109.655 -313.907)" fill="#ffdeae"/>
    </g>
    <g id="Grupo_42" data-name="Grupo 42" transform="translate(3.442 4.981)">
      <path id="Trazado_74" data-name="Trazado 74" d="M112.161,318.538h0a.819.819,0,0,0,.2-.141.549.549,0,0,1,.218-.116.471.471,0,0,1-.127.183A.942.942,0,0,1,112.161,318.538Z" transform="translate(-112.161 -318.269)" fill="#c49047"/>
      <path id="Trazado_75" data-name="Trazado 75" d="M112.226,318.386a1.612,1.612,0,0,1,.128-.155.308.308,0,0,1,.194-.054.068.068,0,0,1,.038.01.549.549,0,0,0-.218.116.817.817,0,0,1-.2.14A.4.4,0,0,0,112.226,318.386Z" transform="translate(-112.164 -318.176)" fill="#ffdeae"/>
    </g>
    <g id="Grupo_72" data-name="Grupo 72" transform="translate(3.985 0)">
      <g id="Grupo_43" data-name="Grupo 43" transform="translate(3.412)">
        <path id="Trazado_76" data-name="Trazado 76" d="M148.438,273.855h0a1.574,1.574,0,0,1-.067.473,1.066,1.066,0,0,0-.011.479.914.914,0,0,0,.206-.38A1.822,1.822,0,0,0,148.438,273.855Z" transform="translate(-148.226 -273.855)" fill="#c49047"/>
        <path id="Trazado_77" data-name="Trazado 77" d="M147.519,274.02a3.108,3.108,0,0,0-.157.356.6.6,0,0,0,.075.382.132.132,0,0,0,.051.056,1.066,1.066,0,0,1,.011-.479,1.574,1.574,0,0,0,.067-.473A.771.771,0,0,1,147.519,274.02Z" transform="translate(-147.353 -273.861)" fill="#ffdeae"/>
      </g>
      <g id="Grupo_44" data-name="Grupo 44" transform="translate(2.982 0.264)">
        <path id="Trazado_78" data-name="Trazado 78" d="M143.528,276.2h0a1.574,1.574,0,0,1,.262.4,1.066,1.066,0,0,0,.308.367.914.914,0,0,0-.1-.421A1.82,1.82,0,0,0,143.528,276.2Z" transform="translate(-143.528 -276.202)" fill="#c49047"/>
        <path id="Trazado_79" data-name="Trazado 79" d="M143.6,276.357a3.129,3.129,0,0,0,.117.371.6.6,0,0,0,.309.238.132.132,0,0,0,.075.008,1.066,1.066,0,0,1-.308-.367,1.574,1.574,0,0,0-.262-.4A.767.767,0,0,1,143.6,276.357Z" transform="translate(-143.532 -276.207)" fill="#ffdeae"/>
      </g>
      <g id="Grupo_47" data-name="Grupo 47" transform="translate(3.12 0.668)">
        <g id="Grupo_45" data-name="Grupo 45" transform="translate(0.373)">
          <path id="Trazado_80" data-name="Trazado 80" d="M149.033,279.8h0a1.574,1.574,0,0,1-.135.458,1.065,1.065,0,0,0-.081.473.915.915,0,0,0,.259-.345A1.826,1.826,0,0,0,149.033,279.8Z" transform="translate(-148.732 -279.798)" fill="#c49047"/>
          <path id="Trazado_81" data-name="Trazado 81" d="M148.3,279.955a3.12,3.12,0,0,0-.208.329.6.6,0,0,0,.018.389.132.132,0,0,0,.042.063,1.065,1.065,0,0,1,.081-.473,1.575,1.575,0,0,0,.135-.458A.782.782,0,0,1,148.3,279.955Z" transform="translate(-148.072 -279.804)" fill="#ffdeae"/>
        </g>
        <g id="Grupo_46" data-name="Grupo 46" transform="translate(0 0.167)">
          <path id="Trazado_82" data-name="Trazado 82" d="M144.757,281.283h0a1.576,1.576,0,0,1,.2.433,1.065,1.065,0,0,0,.251.408.914.914,0,0,0-.033-.431A1.821,1.821,0,0,0,144.757,281.283Z" transform="translate(-144.757 -281.283)" fill="#c49047"/>
          <path id="Trazado_83" data-name="Trazado 83" d="M144.808,281.447a3.15,3.15,0,0,0,.061.384.6.6,0,0,0,.271.28.132.132,0,0,0,.073.019,1.065,1.065,0,0,1-.251-.408,1.578,1.578,0,0,0-.2-.433A.777.777,0,0,1,144.808,281.447Z" transform="translate(-144.76 -281.288)" fill="#ffdeae"/>
        </g>
      </g>
      <g id="Grupo_50" data-name="Grupo 50" transform="translate(3.15 1.393)">
        <g id="Grupo_48" data-name="Grupo 48" transform="translate(0.254)">
          <path id="Trazado_84" data-name="Trazado 84" d="M148.007,286.249h0a1.576,1.576,0,0,1-.238.414,1.064,1.064,0,0,0-.188.441.914.914,0,0,0,.332-.276A1.824,1.824,0,0,0,148.007,286.249Z" transform="translate(-147.547 -286.249)" fill="#c49047"/>
          <path id="Trazado_85" data-name="Trazado 85" d="M147.639,286.385a3.157,3.157,0,0,0-.278.272.6.6,0,0,0-.072.383.132.132,0,0,0,.026.071,1.065,1.065,0,0,1,.188-.441,1.574,1.574,0,0,0,.238-.414A.77.77,0,0,1,147.639,286.385Z" transform="translate(-147.281 -286.254)" fill="#ffdeae"/>
        </g>
        <g id="Grupo_49" data-name="Grupo 49" transform="translate(0 0.006)">
          <path id="Trazado_86" data-name="Trazado 86" d="M145.2,286.3h0a1.573,1.573,0,0,1,.095.468,1.066,1.066,0,0,0,.15.455.913.913,0,0,0,.067-.427A1.824,1.824,0,0,0,145.2,286.3Z" transform="translate(-145.179 -286.305)" fill="#c49047"/>
          <path id="Trazado_87" data-name="Trazado 87" d="M145.051,286.477a3.126,3.126,0,0,0-.03.388.6.6,0,0,0,.2.335.132.132,0,0,0,.066.036,1.066,1.066,0,0,1-.15-.455,1.573,1.573,0,0,0-.095-.468A.774.774,0,0,1,145.051,286.477Z" transform="translate(-145.021 -286.311)" fill="#ffdeae"/>
        </g>
      </g>
      <g id="Grupo_53" data-name="Grupo 53" transform="translate(3.011 2.003)">
        <g id="Grupo_51" data-name="Grupo 51" transform="translate(0.233 0.07)">
          <path id="Trazado_88" data-name="Trazado 88" d="M146.557,292.3h0a1.576,1.576,0,0,1-.282.385,1.065,1.065,0,0,0-.235.418.915.915,0,0,0,.361-.238A1.829,1.829,0,0,0,146.557,292.3Z" transform="translate(-146.019 -292.298)" fill="#c49047"/>
          <path id="Trazado_89" data-name="Trazado 89" d="M146.283,292.422a3.12,3.12,0,0,0-.306.239.6.6,0,0,0-.114.373.132.132,0,0,0,.018.073,1.065,1.065,0,0,1,.235-.418,1.575,1.575,0,0,0,.282-.385A.776.776,0,0,1,146.283,292.422Z" transform="translate(-145.86 -292.303)" fill="#ffdeae"/>
        </g>
        <g id="Grupo_52" data-name="Grupo 52">
          <path id="Trazado_90" data-name="Trazado 90" d="M144.5,291.676h0a1.578,1.578,0,0,1,.043.475,1.065,1.065,0,0,0,.1.469.914.914,0,0,0,.114-.417A1.826,1.826,0,0,0,144.5,291.676Z" transform="translate(-144.421 -291.676)" fill="#c49047"/>
          <path id="Trazado_91" data-name="Trazado 91" d="M143.856,291.849a3.143,3.143,0,0,0-.072.382.6.6,0,0,0,.16.355.132.132,0,0,0,.062.043,1.065,1.065,0,0,1-.1-.469,1.577,1.577,0,0,0-.043-.475A.784.784,0,0,1,143.856,291.849Z" transform="translate(-143.784 -291.683)" fill="#ffdeae"/>
        </g>
      </g>
      <g id="Grupo_56" data-name="Grupo 56" transform="translate(2.749 2.543)">
        <g id="Grupo_54" data-name="Grupo 54" transform="translate(0.187 0.197)">
          <path id="Trazado_92" data-name="Trazado 92" d="M143.843,298.231h0a1.574,1.574,0,0,1-.348.327,1.065,1.065,0,0,0-.309.367.913.913,0,0,0,.4-.167A1.82,1.82,0,0,0,143.843,298.231Z" transform="translate(-143.178 -298.231)" fill="#c49047"/>
          <path id="Trazado_93" data-name="Trazado 93" d="M143.647,298.331a3.144,3.144,0,0,0-.346.179.6.6,0,0,0-.181.345.131.131,0,0,0,0,.075,1.065,1.065,0,0,1,.309-.367,1.576,1.576,0,0,0,.348-.327A.778.778,0,0,1,143.647,298.331Z" transform="translate(-143.117 -298.235)" fill="#ffdeae"/>
        </g>
        <g id="Grupo_55" data-name="Grupo 55">
          <path id="Trazado_94" data-name="Trazado 94" d="M142.553,296.482h0a1.575,1.575,0,0,1-.046.475,1.065,1.065,0,0,0,.01.479.915.915,0,0,0,.189-.388A1.822,1.822,0,0,0,142.553,296.482Z" transform="translate(-142.366 -296.482)" fill="#c49047"/>
          <path id="Trazado_95" data-name="Trazado 95" d="M141.6,296.649a3.122,3.122,0,0,0-.142.362.6.6,0,0,0,.092.379.132.132,0,0,0,.053.053,1.065,1.065,0,0,1-.01-.479,1.576,1.576,0,0,0,.046-.475A.779.779,0,0,1,141.6,296.649Z" transform="translate(-141.457 -296.488)" fill="#ffdeae"/>
        </g>
      </g>
      <g id="Grupo_59" data-name="Grupo 59" transform="translate(2.407 3.041)">
        <g id="Grupo_57" data-name="Grupo 57" transform="translate(0.141 0.31)">
          <path id="Trazado_96" data-name="Trazado 96" d="M140.458,303.672h0a1.576,1.576,0,0,1-.4.26,1.065,1.065,0,0,0-.368.307.913.913,0,0,0,.421-.094A1.824,1.824,0,0,0,140.458,303.672Z" transform="translate(-139.687 -303.672)" fill="#c49047"/>
          <path id="Trazado_97" data-name="Trazado 97" d="M140.292,303.746a3.124,3.124,0,0,0-.371.115.6.6,0,0,0-.239.308.132.132,0,0,0-.009.075,1.065,1.065,0,0,1,.368-.307,1.575,1.575,0,0,0,.4-.26A.777.777,0,0,1,140.292,303.746Z" transform="translate(-139.671 -303.676)" fill="#ffdeae"/>
        </g>
        <g id="Grupo_58" data-name="Grupo 58">
          <path id="Trazado_98" data-name="Trazado 98" d="M139.394,300.913h0a1.568,1.568,0,0,1-.128.46,1.066,1.066,0,0,0-.074.474.913.913,0,0,0,.254-.349A1.821,1.821,0,0,0,139.394,300.913Z" transform="translate(-139.102 -300.913)" fill="#c49047"/>
          <path id="Trazado_99" data-name="Trazado 99" d="M138.639,301.071a3.1,3.1,0,0,0-.2.332.6.6,0,0,0,.024.389.133.133,0,0,0,.043.062,1.066,1.066,0,0,1,.074-.474,1.57,1.57,0,0,0,.128-.46A.782.782,0,0,1,138.639,301.071Z" transform="translate(-138.414 -300.919)" fill="#ffdeae"/>
        </g>
      </g>
      <g id="Grupo_62" data-name="Grupo 62" transform="translate(1.874 3.51)">
        <g id="Grupo_60" data-name="Grupo 60" transform="translate(0.1 0.452)">
          <path id="Trazado_100" data-name="Trazado 100" d="M135.447,309.1h0a1.577,1.577,0,0,1-.452.155,1.066,1.066,0,0,0-.432.208.915.915,0,0,0,.432.011A1.822,1.822,0,0,0,135.447,309.1Z" transform="translate(-134.563 -309.104)" fill="#c49047"/>
          <path id="Trazado_101" data-name="Trazado 101" d="M135.285,309.137a3.15,3.15,0,0,0-.388.021.6.6,0,0,0-.306.24.132.132,0,0,0-.027.07,1.065,1.065,0,0,1,.432-.208,1.573,1.573,0,0,0,.452-.155A.771.771,0,0,1,135.285,309.137Z" transform="translate(-134.563 -309.106)" fill="#ffdeae"/>
        </g>
        <g id="Grupo_61" data-name="Grupo 61">
          <path id="Trazado_102" data-name="Trazado 102" d="M134.4,305.082h0a1.574,1.574,0,0,1-.237.415,1.065,1.065,0,0,0-.187.441.915.915,0,0,0,.332-.277A1.825,1.825,0,0,0,134.4,305.082Z" transform="translate(-133.94 -305.082)" fill="#c49047"/>
          <path id="Trazado_103" data-name="Trazado 103" d="M134.028,305.218a3.1,3.1,0,0,0-.278.272.6.6,0,0,0-.071.383.133.133,0,0,0,.026.071,1.065,1.065,0,0,1,.187-.441,1.575,1.575,0,0,0,.237-.415A.773.773,0,0,1,134.028,305.218Z" transform="translate(-133.671 -305.087)" fill="#ffdeae"/>
        </g>
      </g>
      <g id="Grupo_65" data-name="Grupo 65" transform="translate(1.363 3.928)">
        <g id="Grupo_63" data-name="Grupo 63" transform="translate(0.097 0.471)">
          <path id="Trazado_104" data-name="Trazado 104" d="M130.876,312.994h0a1.576,1.576,0,0,1-.457.139,1.065,1.065,0,0,0-.439.192.914.914,0,0,0,.431.027A1.819,1.819,0,0,0,130.876,312.994Z" transform="translate(-129.979 -312.994)" fill="#c49047"/>
          <path id="Trazado_105" data-name="Trazado 105" d="M130.712,313.022a3.128,3.128,0,0,0-.389.007.6.6,0,0,0-.315.229.132.132,0,0,0-.029.069,1.064,1.064,0,0,1,.439-.192,1.575,1.575,0,0,0,.457-.139A.777.777,0,0,1,130.712,313.022Z" transform="translate(-129.979 -312.997)" fill="#ffdeae"/>
        </g>
        <g id="Grupo_64" data-name="Grupo 64">
          <path id="Trazado_106" data-name="Trazado 106" d="M129.832,308.8h0a1.579,1.579,0,0,1-.252.406,1.065,1.065,0,0,0-.2.434.914.914,0,0,0,.342-.264A1.823,1.823,0,0,0,129.832,308.8Z" transform="translate(-129.348 -308.805)" fill="#c49047"/>
          <path id="Trazado_107" data-name="Trazado 107" d="M129.5,308.938a3.106,3.106,0,0,0-.287.262.6.6,0,0,0-.085.38.132.132,0,0,0,.024.071,1.065,1.065,0,0,1,.2-.434,1.576,1.576,0,0,0,.252-.406A.774.774,0,0,1,129.5,308.938Z" transform="translate(-129.12 -308.81)" fill="#ffdeae"/>
        </g>
      </g>
      <g id="Grupo_68" data-name="Grupo 68" transform="translate(0.675 4.222)">
        <g id="Grupo_66" data-name="Grupo 66" transform="translate(0.083 0.472)">
          <path id="Trazado_108" data-name="Trazado 108" d="M124.687,316.683h0a1.578,1.578,0,0,1-.477.01,1.065,1.065,0,0,0-.475.067.914.914,0,0,0,.408.142A1.826,1.826,0,0,0,124.687,316.683Z" transform="translate(-123.734 -316.564)" fill="#c49047"/>
          <path id="Trazado_109" data-name="Trazado 109" d="M124.523,315.722a3.148,3.148,0,0,0-.376-.1.6.6,0,0,0-.365.136.132.132,0,0,0-.047.059,1.065,1.065,0,0,1,.475-.067,1.577,1.577,0,0,0,.477-.01A.775.775,0,0,1,124.523,315.722Z" transform="translate(-123.734 -315.622)" fill="#ffdeae"/>
        </g>
        <g id="Grupo_67" data-name="Grupo 67">
          <path id="Trazado_110" data-name="Trazado 110" d="M123.727,311.425h0a1.576,1.576,0,0,1-.352.323,1.065,1.065,0,0,0-.312.364.913.913,0,0,0,.4-.163A1.821,1.821,0,0,0,123.727,311.425Z" transform="translate(-123.055 -311.425)" fill="#c49047"/>
          <path id="Trazado_111" data-name="Trazado 111" d="M123.533,311.523a3.162,3.162,0,0,0-.347.175.6.6,0,0,0-.185.343.131.131,0,0,0,0,.075,1.066,1.066,0,0,1,.312-.364,1.575,1.575,0,0,0,.352-.323A.766.766,0,0,1,123.533,311.523Z" transform="translate(-122.997 -311.429)" fill="#ffdeae"/>
        </g>
      </g>
      <g id="Grupo_69" data-name="Grupo 69" transform="translate(0.104 4.857)">
        <path id="Trazado_112" data-name="Trazado 112" d="M118.868,318.148h0a1.575,1.575,0,0,1-.472-.073,1.064,1.064,0,0,0-.479-.017.913.913,0,0,0,.377.211A1.818,1.818,0,0,0,118.868,318.148Z" transform="translate(-117.916 -317.928)" fill="#c49047"/>
        <path id="Trazado_113" data-name="Trazado 113" d="M118.709,317.24a3.121,3.121,0,0,0-.354-.162.6.6,0,0,0-.383.07.132.132,0,0,0-.057.05,1.064,1.064,0,0,1,.479.017,1.576,1.576,0,0,0,.472.073A.771.771,0,0,1,118.709,317.24Z" transform="translate(-117.916 -317.069)" fill="#ffdeae"/>
      </g>
      <g id="Grupo_70" data-name="Grupo 70" transform="translate(0.024 4.501)">
        <path id="Trazado_114" data-name="Trazado 114" d="M117.9,313.9h0a1.379,1.379,0,0,1-.352.225.933.933,0,0,0-.325.266.8.8,0,0,0,.37-.079A1.6,1.6,0,0,0,117.9,313.9Z" transform="translate(-117.22 -313.903)" fill="#c49047"/>
        <path id="Trazado_115" data-name="Trazado 115" d="M117.756,313.967a2.727,2.727,0,0,0-.326.1.524.524,0,0,0-.212.267.115.115,0,0,0-.008.065.933.933,0,0,1,.325-.266,1.379,1.379,0,0,0,.352-.225A.672.672,0,0,1,117.756,313.967Z" transform="translate(-117.208 -313.907)" fill="#ffdeae"/>
      </g>
      <g id="Grupo_71" data-name="Grupo 71" transform="translate(0 4.981)">
        <path id="Trazado_116" data-name="Trazado 116" d="M117.416,318.538h0a.818.818,0,0,1-.2-.141.549.549,0,0,0-.218-.116.471.471,0,0,0,.127.183A.941.941,0,0,0,117.416,318.538Z" transform="translate(-116.995 -318.269)" fill="#c49047"/>
        <path id="Trazado_117" data-name="Trazado 117" d="M117.354,318.386a1.621,1.621,0,0,0-.127-.155.309.309,0,0,0-.194-.054.068.068,0,0,0-.038.01.549.549,0,0,1,.218.116.818.818,0,0,0,.2.14A.4.4,0,0,1,117.354,318.386Z" transform="translate(-116.995 -318.176)" fill="#ffdeae"/>
      </g>
    </g>
  </g>
  <g id="Grupo_97" data-name="Grupo 97" transform="translate(1.059 8.476)">
    <path id="Trazado_118" data-name="Trazado 118" d="M56.854,235.619a6.709,6.709,0,0,0-4.482,3.118,4.005,4.005,0,0,0-.521,3.363c1.479,5.862,3.58,2.78,6.4,5.637a.051.051,0,0,1,0,.076l-.215.2a.051.051,0,0,1-.073,0c-1.74-1.742-3.09-1.079-4.474-2.045-1.175-.83-1.684-2.564-2-4.006A4.549,4.549,0,0,1,52.5,238.1c.054-.074.224-.275.252-.307A6.348,6.348,0,0,1,56.854,235.619Z" transform="translate(-49.292 -233.983)" fill="#c49047"/>
    <g id="Grupo_74" data-name="Grupo 74" transform="translate(0.847 3.294)">
      <path id="Trazado_119" data-name="Trazado 119" d="M40.968,250.374s0,0,0,0a4.946,4.946,0,0,0-.01,1.5,3.341,3.341,0,0,1-.187,1.493,2.868,2.868,0,0,1-.465-1.273A5.725,5.725,0,0,1,40.968,250.374Z" transform="translate(-40.304 -250.374)" fill="#c49047"/>
      <path id="Trazado_120" data-name="Trazado 120" d="M44.721,250.909a9.806,9.806,0,0,1,.325,1.177,1.879,1.879,0,0,1-.409,1.152.415.415,0,0,1-.183.15,3.342,3.342,0,0,0,.187-1.493,4.946,4.946,0,0,1,.01-1.5A2.423,2.423,0,0,0,44.721,250.909Z" transform="translate(-43.989 -250.394)" fill="#ffdeae"/>
    </g>
    <g id="Grupo_75" data-name="Grupo 75" transform="translate(1.823 4.316)">
      <path id="Trazado_121" data-name="Trazado 121" d="M49.969,259.469v0a4.94,4.94,0,0,0-.276,1.473,3.343,3.343,0,0,1-.449,1.436,2.869,2.869,0,0,1-.232-1.336A5.727,5.727,0,0,1,49.969,259.469Z" transform="translate(-48.987 -259.469)" fill="#c49047"/>
      <path id="Trazado_122" data-name="Trazado 122" d="M51.974,260.009a9.811,9.811,0,0,1,.111,1.216,1.879,1.879,0,0,1-.607,1.061.415.415,0,0,1-.207.115,3.343,3.343,0,0,0,.449-1.436A4.941,4.941,0,0,1,52,259.492,2.42,2.42,0,0,0,51.974,260.009Z" transform="translate(-51.015 -259.489)" fill="#ffdeae"/>
    </g>
    <g id="Grupo_76" data-name="Grupo 76" transform="translate(0.225 4.91)">
      <path id="Trazado_123" data-name="Trazado 123" d="M34.764,264.754v0a4.211,4.211,0,0,0,.717,1.055,2.844,2.844,0,0,1,.59,1.137,2.441,2.441,0,0,1-.941-.668A4.871,4.871,0,0,1,34.764,264.754Z" transform="translate(-34.764 -264.754)" fill="#c49047"/>
      <path id="Trazado_124" data-name="Trazado 124" d="M35.07,265.1a8.334,8.334,0,0,1,.8.668,1.6,1.6,0,0,1,.27,1,.353.353,0,0,1-.056.193,2.843,2.843,0,0,0-.59-1.137,4.209,4.209,0,0,1-.717-1.055A2.074,2.074,0,0,0,35.07,265.1Z" transform="translate(-34.773 -264.768)" fill="#ffdeae"/>
    </g>
    <g id="Grupo_77" data-name="Grupo 77" transform="translate(0 6.77)">
      <path id="Trazado_125" data-name="Trazado 125" d="M32.764,281.306l0,0a4.442,4.442,0,0,0,1,.9,3,3,0,0,1,.889,1.017,2.576,2.576,0,0,1-1.132-.448A5.144,5.144,0,0,1,32.764,281.306Z" transform="translate(-32.764 -281.306)" fill="#c49047"/>
      <path id="Trazado_126" data-name="Trazado 126" d="M33.164,281.58a8.826,8.826,0,0,1,.983.485,1.687,1.687,0,0,1,.529.962.373.373,0,0,1-.009.212,3,3,0,0,0-.889-1.017,4.443,4.443,0,0,1-1-.9A2.187,2.187,0,0,0,33.164,281.58Z" transform="translate(-32.777 -281.318)" fill="#ffdeae"/>
    </g>
    <g id="Grupo_78" data-name="Grupo 78" transform="translate(1.449 6.041)">
      <path id="Trazado_127" data-name="Trazado 127" d="M45.947,274.818a.024.024,0,0,0,0,0,5.121,5.121,0,0,0,.339,1.516,3.465,3.465,0,0,1,.158,1.551,2.973,2.973,0,0,1-.766-1.178A5.931,5.931,0,0,1,45.947,274.818Z" transform="translate(-45.659 -274.818)" fill="#c49047"/>
      <path id="Trazado_128" data-name="Trazado 128" d="M48.409,275.342a10.169,10.169,0,0,1,.6,1.113,1.947,1.947,0,0,1-.144,1.259.43.43,0,0,1-.15.194,3.465,3.465,0,0,0-.158-1.551,5.121,5.121,0,0,1-.339-1.516A2.512,2.512,0,0,0,48.409,275.342Z" transform="translate(-47.932 -274.838)" fill="#ffdeae"/>
    </g>
    <g id="Grupo_79" data-name="Grupo 79" transform="translate(0.075 9.586)">
      <path id="Trazado_129" data-name="Trazado 129" d="M33.433,307.132h0a5.128,5.128,0,0,0,1.526.289,3.465,3.465,0,0,1,1.487.469,2.973,2.973,0,0,1-1.385.237A5.931,5.931,0,0,1,33.433,307.132Z" transform="translate(-33.433 -307.046)" fill="#c49047"/>
      <path id="Trazado_130" data-name="Trazado 130" d="M33.991,306.475a10.152,10.152,0,0,1,1.26-.112,1.947,1.947,0,0,1,1.1.631.431.431,0,0,1,.119.214,3.465,3.465,0,0,0-1.487-.469,5.127,5.127,0,0,1-1.526-.29A2.52,2.52,0,0,0,33.991,306.475Z" transform="translate(-33.453 -306.363)" fill="#ffdeae"/>
    </g>
    <g id="Grupo_80" data-name="Grupo 80" transform="translate(1.871 8.749)">
      <path id="Trazado_131" data-name="Trazado 131" d="M49.408,298.913l0,0a5.124,5.124,0,0,0,.983,1.2,3.465,3.465,0,0,1,.838,1.316,2.974,2.974,0,0,1-1.213-.709A5.934,5.934,0,0,1,49.408,298.913Z" transform="translate(-49.408 -298.913)" fill="#c49047"/>
      <path id="Trazado_132" data-name="Trazado 132" d="M49.817,299.294a10.139,10.139,0,0,1,1.037.724,1.947,1.947,0,0,1,.436,1.19.429.429,0,0,1-.047.241,3.464,3.464,0,0,0-.838-1.316,5.125,5.125,0,0,1-.983-1.2A2.518,2.518,0,0,0,49.817,299.294Z" transform="translate(-49.421 -298.929)" fill="#ffdeae"/>
    </g>
    <g id="Grupo_81" data-name="Grupo 81" transform="translate(3.58 8.558)">
      <path id="Trazado_133" data-name="Trazado 133" d="M64.885,297.217s0,0,0,0a5.124,5.124,0,0,0,.359,1.511,3.464,3.464,0,0,1,.179,1.549,2.973,2.973,0,0,1-.782-1.167A5.934,5.934,0,0,1,64.885,297.217Z" transform="translate(-64.619 -297.217)" fill="#c49047"/>
      <path id="Trazado_134" data-name="Trazado 134" d="M67.185,297.739a10.153,10.153,0,0,1,.617,1.1,1.948,1.948,0,0,1-.128,1.261.43.43,0,0,1-.147.2,3.464,3.464,0,0,0-.179-1.549,5.124,5.124,0,0,1-.359-1.511A2.524,2.524,0,0,0,67.185,297.739Z" transform="translate(-66.723 -297.237)" fill="#ffdeae"/>
    </g>
    <g id="Grupo_82" data-name="Grupo 82" transform="translate(4.927 9.387)">
      <path id="Trazado_135" data-name="Trazado 135" d="M76.869,304.589s0,0,0,0a5.125,5.125,0,0,0,.359,1.511,3.465,3.465,0,0,1,.179,1.549,2.974,2.974,0,0,1-.782-1.168A5.933,5.933,0,0,1,76.869,304.589Z" transform="translate(-76.603 -304.589)" fill="#c49047"/>
      <path id="Trazado_136" data-name="Trazado 136" d="M79.169,305.111a10.169,10.169,0,0,1,.617,1.1,1.947,1.947,0,0,1-.128,1.261.43.43,0,0,1-.147.2,3.465,3.465,0,0,0-.179-1.549,5.125,5.125,0,0,1-.359-1.511A2.516,2.516,0,0,0,79.169,305.111Z" transform="translate(-78.707 -304.609)" fill="#ffdeae"/>
    </g>
    <g id="Grupo_83" data-name="Grupo 83" transform="translate(1.158 11.293)">
      <path id="Trazado_137" data-name="Trazado 137" d="M43.066,325.153h0a5.371,5.371,0,0,0,1.627.036,3.63,3.63,0,0,1,1.618.229,3.116,3.116,0,0,1-1.39.483A6.216,6.216,0,0,1,43.066,325.153Z" transform="translate(-43.066 -324.748)" fill="#c49047"/>
      <path id="Trazado_138" data-name="Trazado 138" d="M43.649,321.891a10.674,10.674,0,0,1,1.283-.333,2.04,2.04,0,0,1,1.244.463.45.45,0,0,1,.16.2,3.629,3.629,0,0,0-1.618-.229,5.371,5.371,0,0,1-1.627-.036A2.632,2.632,0,0,0,43.649,321.891Z" transform="translate(-43.088 -321.552)" fill="#ffdeae"/>
    </g>
    <g id="Grupo_84" data-name="Grupo 84" transform="translate(3.846 12.537)">
      <path id="Trazado_139" data-name="Trazado 139" d="M66.989,334.738h0a4.542,4.542,0,0,0,1.208-.659,3.07,3.07,0,0,1,1.282-.514,2.634,2.634,0,0,1-.815.941A5.258,5.258,0,0,1,66.989,334.738Z" transform="translate(-66.989 -333.457)" fill="#c49047"/>
      <path id="Trazado_140" data-name="Trazado 140" d="M67.389,333.613a9.015,9.015,0,0,1,.8-.785,1.726,1.726,0,0,1,1.107-.185.381.381,0,0,1,.2.08,3.071,3.071,0,0,0-1.282.514,4.54,4.54,0,0,1-1.208.659A2.228,2.228,0,0,0,67.389,333.613Z" transform="translate(-67.006 -332.616)" fill="#ffdeae"/>
    </g>
    <g id="Grupo_85" data-name="Grupo 85" transform="translate(6.033 0.4)">
      <path id="Trazado_141" data-name="Trazado 141" d="M88.8,224.622h0a4.363,4.363,0,0,0-1.137.677,2.953,2.953,0,0,1-1.214.541,2.533,2.533,0,0,1,.75-.933A5.058,5.058,0,0,1,88.8,224.622Z" transform="translate(-86.443 -224.622)" fill="#c49047"/>
      <path id="Trazado_142" data-name="Trazado 142" d="M88.438,224.918a8.668,8.668,0,0,1-.741.783,1.66,1.66,0,0,1-1.058.218.366.366,0,0,1-.2-.07,2.953,2.953,0,0,0,1.214-.541,4.364,4.364,0,0,1,1.137-.677A2.143,2.143,0,0,0,88.438,224.918Z" transform="translate(-86.443 -224.631)" fill="#ffdeae"/>
    </g>
    <g id="Grupo_86" data-name="Grupo 86" transform="translate(5.434)">
      <path id="Trazado_143" data-name="Trazado 143" d="M82.371,221.065v0a4.366,4.366,0,0,0-.536,1.21,2.952,2.952,0,0,1-.677,1.143,2.533,2.533,0,0,1,.072-1.195A5.052,5.052,0,0,1,82.371,221.065Z" transform="translate(-81.115 -221.065)" fill="#c49047"/>
      <path id="Trazado_144" data-name="Trazado 144" d="M82.576,221.522a8.661,8.661,0,0,1-.151,1.068,1.66,1.66,0,0,1-.737.79.367.367,0,0,1-.2.057,2.952,2.952,0,0,0,.677-1.143,4.366,4.366,0,0,1,.536-1.21A2.141,2.141,0,0,0,82.576,221.522Z" transform="translate(-81.445 -221.081)" fill="#ffdeae"/>
    </g>
    <g id="Grupo_87" data-name="Grupo 87" transform="translate(4.699 0.631)">
      <path id="Trazado_145" data-name="Trazado 145" d="M75.21,226.681s0,0,0,0a3.519,3.519,0,0,0-.14,1.058,2.38,2.38,0,0,1-.265,1.038,2.043,2.043,0,0,1-.215-.941A4.076,4.076,0,0,1,75.21,226.681Z" transform="translate(-74.578 -226.681)" fill="#c49047"/>
      <path id="Trazado_146" data-name="Trazado 146" d="M76.994,227.065a6.986,6.986,0,0,1,.125.86,1.338,1.338,0,0,1-.391.778.3.3,0,0,1-.143.09,2.38,2.38,0,0,0,.265-1.038,3.518,3.518,0,0,1,.14-1.058A1.727,1.727,0,0,0,76.994,227.065Z" transform="translate(-76.359 -226.695)" fill="#ffdeae"/>
    </g>
    <g id="Grupo_88" data-name="Grupo 88" transform="translate(5.921 2.02)">
      <path id="Trazado_147" data-name="Trazado 147" d="M87.621,239.067h0a3.8,3.8,0,0,0-1.06.455,2.573,2.573,0,0,1-1.11.329,2.208,2.208,0,0,1,.754-.721A4.4,4.4,0,0,1,87.621,239.067Z" transform="translate(-85.449 -239.037)" fill="#c49047"/>
      <path id="Trazado_148" data-name="Trazado 148" d="M87.279,239.52a7.53,7.53,0,0,1-.729.592,1.446,1.446,0,0,1-.939.068.319.319,0,0,1-.162-.083,2.573,2.573,0,0,0,1.11-.329,3.8,3.8,0,0,1,1.06-.455A1.862,1.862,0,0,0,87.279,239.52Z" transform="translate(-85.449 -239.282)" fill="#ffdeae"/>
    </g>
    <g id="Grupo_89" data-name="Grupo 89" transform="translate(4.801 1.657)">
      <path id="Trazado_149" data-name="Trazado 149" d="M76.832,235.813v0a4.166,4.166,0,0,0-.606,1.107,2.815,2.815,0,0,1-.735,1.032,2.414,2.414,0,0,1,.164-1.129A4.82,4.82,0,0,1,76.832,235.813Z" transform="translate(-75.482 -235.813)" fill="#c49047"/>
      <path id="Trazado_150" data-name="Trazado 150" d="M76.737,236.237a8.238,8.238,0,0,1-.229,1,1.582,1.582,0,0,1-.763.691.35.35,0,0,1-.2.038,2.815,2.815,0,0,0,.735-1.032,4.166,4.166,0,0,1,.606-1.107A2.044,2.044,0,0,0,76.737,236.237Z" transform="translate(-75.541 -235.827)" fill="#ffdeae"/>
    </g>
    <g id="Grupo_90" data-name="Grupo 90" transform="translate(4.335 3.339)">
      <path id="Trazado_151" data-name="Trazado 151" d="M73.534,250.772h0a4.169,4.169,0,0,0-1.058.687,2.814,2.814,0,0,1-1.136.56,2.416,2.416,0,0,1,.68-.917A4.818,4.818,0,0,1,73.534,250.772Z" transform="translate(-71.337 -250.772)" fill="#c49047"/>
      <path id="Trazado_152" data-name="Trazado 152" d="M73.2,251.068a8.27,8.27,0,0,1-.677.774,1.583,1.583,0,0,1-1,.247.35.35,0,0,1-.19-.059,2.815,2.815,0,0,0,1.136-.56,4.169,4.169,0,0,1,1.058-.687A2.039,2.039,0,0,0,73.2,251.068Z" transform="translate(-71.337 -250.781)" fill="#ffdeae"/>
    </g>
    <g id="Grupo_91" data-name="Grupo 91" transform="translate(3.152 1.706)">
      <path id="Trazado_153" data-name="Trazado 153" d="M61.256,236.242s0,0,0,0a5.209,5.209,0,0,0,.205,1.565,3.519,3.519,0,0,1,.02,1.584,3.022,3.022,0,0,1-.668-1.261A6.032,6.032,0,0,1,61.256,236.242Z" transform="translate(-60.81 -236.242)" fill="#c49047"/>
      <path id="Trazado_154" data-name="Trazado 154" d="M64.928,236.791a10.322,10.322,0,0,1,.508,1.181,1.978,1.978,0,0,1-.26,1.261.437.437,0,0,1-.169.183,3.519,3.519,0,0,0-.02-1.584,5.209,5.209,0,0,1-.205-1.565A2.559,2.559,0,0,0,64.928,236.791Z" transform="translate(-64.335 -236.263)" fill="#ffdeae"/>
    </g>
    <g id="Grupo_92" data-name="Grupo 92" transform="translate(3.549 2.867)">
      <path id="Trazado_155" data-name="Trazado 155" d="M65.695,246.576v0a5.208,5.208,0,0,0-.538,1.484,3.519,3.519,0,0,1-.712,1.416,3.02,3.02,0,0,1-.013-1.427A6.03,6.03,0,0,1,65.695,246.576Z" transform="translate(-64.342 -246.576)" fill="#c49047"/>
      <path id="Trazado_156" data-name="Trazado 156" d="M66.392,247.131a10.307,10.307,0,0,1-.092,1.282,1.979,1.979,0,0,1-.811,1,.436.436,0,0,1-.234.084,3.519,3.519,0,0,0,.712-1.415A5.207,5.207,0,0,1,66.5,246.6,2.563,2.563,0,0,0,66.392,247.131Z" transform="translate(-65.151 -246.596)" fill="#ffdeae"/>
    </g>
    <g id="Grupo_93" data-name="Grupo 93" transform="translate(3.651 4.857)">
      <path id="Trazado_157" data-name="Trazado 157" d="M67.188,264.285l0,0a4.538,4.538,0,0,0-.906,1.034,3.066,3.066,0,0,1-1.026.923,2.632,2.632,0,0,1,.442-1.162A5.25,5.25,0,0,1,67.188,264.285Z" transform="translate(-65.254 -264.285)" fill="#c49047"/>
      <path id="Trazado_158" data-name="Trazado 158" d="M66.927,264.7a9,9,0,0,1-.481,1.011,1.723,1.723,0,0,1-.975.554.379.379,0,0,1-.217-.006,3.065,3.065,0,0,0,1.026-.923,4.538,4.538,0,0,1,.906-1.034A2.228,2.228,0,0,0,66.927,264.7Z" transform="translate(-65.254 -264.298)" fill="#ffdeae"/>
    </g>
    <g id="Grupo_94" data-name="Grupo 94" transform="translate(2.893 4.587)">
      <path id="Trazado_159" data-name="Trazado 159" d="M58.549,261.879v0A3.861,3.861,0,0,0,59,262.963a2.611,2.611,0,0,1,.317,1.132,2.241,2.241,0,0,1-.72-.776A4.472,4.472,0,0,1,58.549,261.879Z" transform="translate(-58.508 -261.879)" fill="#c49047"/>
      <path id="Trazado_160" data-name="Trazado 160" d="M59.082,262.243a7.654,7.654,0,0,1,.59.749,1.468,1.468,0,0,1,.055.953.324.324,0,0,1-.086.163,2.611,2.611,0,0,0-.317-1.132,3.861,3.861,0,0,1-.446-1.082A1.894,1.894,0,0,0,59.082,262.243Z" transform="translate(-58.836 -261.893)" fill="#ffdeae"/>
    </g>
    <g id="Grupo_95" data-name="Grupo 95" transform="translate(3.287 6.567)">
      <path id="Trazado_161" data-name="Trazado 161" d="M63.613,279.495h0a3.862,3.862,0,0,0-.749.9,2.611,2.611,0,0,1-.853.808,2.241,2.241,0,0,1,.351-1A4.474,4.474,0,0,1,63.613,279.495Z" transform="translate(-62.009 -279.495)" fill="#c49047"/>
      <path id="Trazado_162" data-name="Trazado 162" d="M63.4,279.852a7.662,7.662,0,0,1-.388.871,1.467,1.467,0,0,1-.818.493.324.324,0,0,1-.185,0,2.611,2.611,0,0,0,.853-.808,3.864,3.864,0,0,1,.749-.9A1.9,1.9,0,0,0,63.4,279.852Z" transform="translate(-62.009 -279.507)" fill="#ffdeae"/>
    </g>
    <g id="Grupo_96" data-name="Grupo 96" transform="translate(2.519 6.372)">
      <path id="Trazado_163" data-name="Trazado 163" d="M56.013,277.765s0,0,0,0a5.318,5.318,0,0,0-.116,1.607,3.594,3.594,0,0,1-.306,1.589,3.084,3.084,0,0,1-.409-1.4A6.156,6.156,0,0,1,56.013,277.765Z" transform="translate(-55.174 -277.765)" fill="#c49047"/>
      <path id="Trazado_164" data-name="Trazado 164" d="M59.337,278.344a10.531,10.531,0,0,1,.266,1.285,2.02,2.02,0,0,1-.519,1.207.446.446,0,0,1-.207.148,3.594,3.594,0,0,0,.306-1.589,5.318,5.318,0,0,1,.116-1.607A2.617,2.617,0,0,0,59.337,278.344Z" transform="translate(-58.461 -277.786)" fill="#ffdeae"/>
    </g>
  </g>
</svg>
