<svg id="Componente_48_1" data-name="Componente 48 – 1" xmlns="http://www.w3.org/2000/svg" width="34.538" height="23.502" viewBox="0 0 34.538 23.502">
  <path id="Trazado_386" data-name="Trazado 386" d="M-579.4-42.458q7.03,0,14.06,0c2.19,0,3.2-1.008,3.2-3.209q.01-8.186-.012-16.372a4.671,4.671,0,0,0-.35-1.223,4.823,4.823,0,0,0-1.2.428q-6.8,4.732-13.571,9.508c-1.7,1.19-2.561,1.192-4.273-.009-4.522-3.172-9.036-6.354-13.569-9.509a4.627,4.627,0,0,0-1.2-.413,4.89,4.89,0,0,0-.336,1.231q-.034,8.185-.013,16.371c0,2.191,1.011,3.194,3.21,3.2Q-586.427-42.454-579.4-42.458Zm.012-23.5c-4.891,0-9.782-.01-14.673.021a3.556,3.556,0,0,0-1.154.452c.225.35.373.809.688,1.033q6.662,4.731,13.366,9.4a2.656,2.656,0,0,0,3.483.017q6.7-4.677,13.371-9.4a3.863,3.863,0,0,0,.725-1.024,3.849,3.849,0,0,0-1.239-.481C-569.673-65.969-574.53-65.957-579.386-65.957Z" transform="translate(596.671 65.959)" fill="#015287"/>
  <path id="Trazado_387" data-name="Trazado 387" d="M-579.4-32.3q-7.03,0-14.059,0c-2.2,0-3.208-1-3.21-3.2q-.007-8.186.013-16.371a4.89,4.89,0,0,1,.336-1.231,4.628,4.628,0,0,1,1.2.413c4.533,3.155,9.047,6.338,13.569,9.509,1.712,1.2,2.576,1.2,4.273.009q6.782-4.759,13.571-9.508a4.823,4.823,0,0,1,1.2-.428,4.671,4.671,0,0,1,.35,1.223q.034,8.186.012,16.372c0,2.2-1.01,3.207-3.2,3.209Q-572.368-32.3-579.4-32.3Z" transform="translate(596.671 55.804)" fill="#015287"/>
  <path id="Trazado_388" data-name="Trazado 388" d="M-573.893-65.957c4.856,0,9.712-.012,14.568.022a3.851,3.851,0,0,1,1.239.481,3.864,3.864,0,0,1-.725,1.024q-6.665,4.727-13.371,9.4a2.656,2.656,0,0,1-3.483-.017q-6.7-4.683-13.366-9.4c-.315-.223-.463-.683-.688-1.033a3.557,3.557,0,0,1,1.154-.452C-583.675-65.968-578.784-65.957-573.893-65.957Z" transform="translate(591.178 65.959)" fill="#015287"/>
</svg>
