<svg id="Componente_39_1" data-name="Componente 39 – 1" xmlns="http://www.w3.org/2000/svg" width="38.549" height="32.247" viewBox="0 0 38.549 32.247">
  <path id="Trazado_192" data-name="Trazado 192" d="M1052.532,208.714c-.739-.776-1.472-1.558-2.221-2.325a.75.75,0,0,1-.237-.578q.011-4.881,0-9.762c0-1.126-.413-1.535-1.547-1.535h-24.61c-1.093,0-1.5.405-1.5,1.5q0,6.626,0,13.252c0,1.179.4,1.572,1.588,1.572q10.874,0,21.747-.006c.358,0,.478.068.473.457-.023,1.854-.018,3.708,0,5.562,0,.309-.083.383-.386.383q-11.119-.013-22.238-.008a3.864,3.864,0,0,1-3.7-2.96,2.139,2.139,0,0,1-.039-.5c0-6.041.019-12.083-.014-18.124a3.815,3.815,0,0,1,2.322-3.44,3.4,3.4,0,0,1,1.274-.256q12.732.013,25.463-.005a3.9,3.9,0,0,1,3.678,2.863,2.639,2.639,0,0,1,.089.687q-.008,6.379,0,12.758v.378ZM1034.479,214a1.787,1.787,0,0,0,1.754,1.832,1.813,1.813,0,0,0,1.793-1.809,1.766,1.766,0,0,0-1.771-1.77A1.732,1.732,0,0,0,1034.479,214Z" transform="translate(-1019.846 -191.936)" fill="#015287"/>
  <path id="Trazado_193" data-name="Trazado 193" d="M1130.21,255.152h-5.123l1.169,2.489q.8,1.694,1.594,3.388a1.113,1.113,0,0,1-.49,1.634,1.1,1.1,0,0,1-1.491-.649c-.7-1.46-1.387-2.93-2.077-4.4-.225-.477-.466-.947-.663-1.435-.122-.3-.215-.279-.417-.073q-1.529,1.55-3.077,3.08c-.084.084-.153.259-.3.194-.113-.051-.048-.211-.048-.32q0-6.357,0-12.713c0-.712.266-1.017.828-.989a.833.833,0,0,1,.546.331q3.033,3,6.063,6,1.641,1.622,3.286,3.24C1130.053,254.971,1130.091,255.019,1130.21,255.152Z" transform="translate(-1091.661 -230.524)" fill="#015287"/>
  <path id="Trazado_194" data-name="Trazado 194" d="M1059.074,292.355h-6.993c-.609,0-.606,0-.659-.612a1.959,1.959,0,0,1,.345-1.283,1.406,1.406,0,0,1,1.4-.692c.539.05,1.086.017,1.63.019.33,0,.49-.117.447-.495a1.9,1.9,0,0,1,.642-1.738,1.263,1.263,0,0,1,.875-.336c1.515,0,3.03,0,4.546,0a1.357,1.357,0,0,1,1.561,1.5,3.819,3.819,0,0,1,0,.583c-.042.388.153.5.5.492.642-.011,1.285,0,1.928,0a1.189,1.189,0,0,1,1.325,1.155,7.211,7.211,0,0,1,.06.965c0,.319-.12.455-.464.453C1063.84,292.349,1061.457,292.355,1059.074,292.355Z" transform="translate(-1042.648 -260.76)" fill="#015287"/>
</svg>
