<svg id="Componente_40_1" data-name="Componente 40 – 1" xmlns="http://www.w3.org/2000/svg" width="32.243" height="32.243" viewBox="0 0 32.243 32.243">
  <path id="Trazado_195" data-name="Trazado 195" d="M1185.076,191.468a16.122,16.122,0,1,0,15.854,16.041A16.153,16.153,0,0,0,1185.076,191.468Zm2.475,28.022a1.994,1.994,0,0,1-2,1.888c-.33.014-.661,0-.991,0v0c-.367,0-.735.019-1.1,0a1.984,1.984,0,0,1-1.915-1.852,18.468,18.468,0,0,1-.006-2.31,1.994,1.994,0,0,1,1.945-1.885c.7-.027,1.4-.023,2.092,0a1.975,1.975,0,0,1,1.962,1.8A15.046,15.046,0,0,1,1187.551,219.49Zm6.784-17.554a5.954,5.954,0,0,1-1.736,3.9c-1.118,1.163-2.31,2.258-3.518,3.329a3.749,3.749,0,0,0-1.532,2.723,1.929,1.929,0,0,1-2.1,1.881c-.312.006-.625,0-.937,0s-.625.006-.937,0a2.07,2.07,0,0,1-2.1-2.2,7.746,7.746,0,0,1,2.875-6.177c.939-.8,1.863-1.609,2.8-2.408a2.082,2.082,0,0,0,.8-2.245,2.343,2.343,0,0,0-1.786-1.707c-1.83-.477-3.948-.1-4.805,2.325a2,2,0,0,1-2.466,1.5c-.6-.061-1.2-.139-1.8-.229a2.09,2.09,0,0,1-1.8-2.766,8.647,8.647,0,0,1,7.489-6.242,11.683,11.683,0,0,1,7.236,1.1C1192.819,196.269,1194.495,198.582,1194.335,201.936Z" transform="translate(-1168.687 -191.467)" fill="#015287"/>
</svg>
