<svg id="Componente_44_1" data-name="Componente 44 – 1" xmlns="http://www.w3.org/2000/svg" width="34.952" height="32.85" viewBox="0 0 34.952 32.85">
  <path id="Trazado_394" data-name="Trazado 394" d="M-112.787,1363.363h6.173a.875.875,0,0,0,.961-.835.884.884,0,0,0-.96-.839q-6.122,0-12.244,0a1.275,1.275,0,0,0-.526.1.85.85,0,0,0-.455.9.9.9,0,0,0,.878.667h6.173Z" transform="translate(127.432 -1349.463)" fill="#015287"/>
  <path id="Trazado_395" data-name="Trazado 395" d="M-197.056,1332.559h-6.467v-.372c0-.853.008-1.707,0-2.56a1.812,1.812,0,0,0-1.7-1.821v4.753h-.44q-6.894,0-13.788,0a1.481,1.481,0,0,0-1.155.478,4.3,4.3,0,0,0-.66.938q-2.653,5.331-5.28,10.676c-.155.315-.249.743-.506.9s-.683.05-1.035.05a.923.923,0,0,1-1.046-1.04q0-8.894,0-17.787a.873.873,0,0,1,.979-.99c.359-.007.717,0,1.1,0V1324.1c-.671,0-1.32-.034-1.963.008a1.9,1.9,0,0,0-1.762,1.691,10.38,10.38,0,0,0-.048,1.225q0,9.01,0,18.02a2.015,2.015,0,0,0,2.2,2.233q8.012,0,16.024,0c2.737,0,5.475-.023,8.212-.008a2.345,2.345,0,0,0,2.217-1.359q2.539-4.762,5.044-9.542c.395-.75.815-1.49,1.146-2.268A1.053,1.053,0,0,0-197.056,1332.559Z" transform="translate(230.833 -1314.425)" fill="#015287"/>
  <path id="Trazado_396" data-name="Trazado 396" d="M-158.722,1208.1a1.838,1.838,0,0,0,.231.393c.313-.636.606-1.185.853-1.754a2.259,2.259,0,0,0,.2-.865q.016-10.7.009-21.4c0-.425.065-.507.446-.507q5.8,0,11.6,0c.412,0,.51.113.51.538,0,1.07,0,2.139,0,3.209,0,.632.236.871.861.872.933,0,1.866,0,2.8,0,.471,0,.571.1.571.583q0,5.051,0,10.1v.411h1.338a.945.945,0,0,0,.02-.112c0-3.841,0-7.683-.015-11.524a1.252,1.252,0,0,0-.3-.759c-1.29-1.438-2.609-2.85-3.913-4.275a1.215,1.215,0,0,0-.964-.406q-6.229.01-12.458.007a2.577,2.577,0,0,0-.672.074,1.649,1.649,0,0,0-1.191,1.768q0,11.538,0,23.075A2.282,2.282,0,0,0-158.722,1208.1Z" transform="translate(163.712 -1182.601)" fill="#015287"/>
  <path id="Trazado_397" data-name="Trazado 397" d="M-105.659,1290.526a.954.954,0,0,0-.815-.331q-6.088,0-12.177,0a1.444,1.444,0,0,0-.238.012.834.834,0,0,0-.568,1.357.955.955,0,0,0,.819.328q1.518,0,3.036,0h6.344c.955,0,1.91,0,2.865,0a.9.9,0,0,0,.856-.51A.755.755,0,0,0-105.659,1290.526Z" transform="translate(127.236 -1282.85)" fill="#015287"/>
  <path id="Trazado_398" data-name="Trazado 398" d="M-119.806,1434.255a.92.92,0,0,0,.985.786.289.289,0,0,0,.21-.124,2.84,2.84,0,0,1,1.578-1.564c-.635,0-1.271-.012-1.906,0A.868.868,0,0,0-119.806,1434.255Z" transform="translate(127.388 -1416.232)" fill="#015287"/>
</svg>
