<svg id="Componente_46_1" data-name="Componente 46 – 1" xmlns="http://www.w3.org/2000/svg" width="34.24" height="31.971" viewBox="0 0 34.24 31.971">
  <path id="Trazado_392" data-name="Trazado 392" d="M-1345.82,609.446c-.45-.007-.9,0-1.4,0V609q0-8.878,0-17.756c0-.6.011-1.192,0-1.788a1.7,1.7,0,0,0-1.736-1.708q-1.125-.012-2.25,0a1.7,1.7,0,0,0-1.721,1.754q0,3.637,0,7.274,0,6.164,0,12.329c0,.108-.01.217-.015.312h-1.687c-.006-.09-.014-.151-.014-.212q0-6.673,0-13.346a1.722,1.722,0,0,0-1.8-1.83q-1.017,0-2.034,0a1.727,1.727,0,0,0-1.878,1.879q0,6.565,0,13.129c0,.129-.014.257-.021.389h-1.684v-.411q0-7.983,0-15.967a1.723,1.723,0,0,0-1.885-1.872c-.678,0-1.357-.018-2.034.009a2.186,2.186,0,0,0-.858.189,1.651,1.651,0,0,0-.941,1.6q0,8.029,0,16.059v.381h-1.7c-.006-.077-.014-.127-.014-.177,0-4.038-.008-8.075,0-12.113a1.75,1.75,0,0,0-1.925-1.958c-.637,0-1.274,0-1.911,0a1.72,1.72,0,0,0-1.876,1.879q0,6,0,11.991v.405c-.7,0-1.346-.007-1.993,0a1.363,1.363,0,0,0-1.393,1.151,1.4,1.4,0,0,0,1.546,1.7h31.072a2.727,2.727,0,0,0,.4-.02,1.3,1.3,0,0,0,1.031-.739A1.424,1.424,0,0,0-1345.82,609.446Z" transform="translate(1378.613 -580.328)" fill="#015287"/>
  <path id="Trazado_393" data-name="Trazado 393" d="M-1311.2,479.436a2.172,2.172,0,0,0,1.7-2.17.558.558,0,0,1,.279-.521c.709-.491,1.405-1,2.106-1.5l.894-.641a2.4,2.4,0,0,0,3.8-.078c1.028.433,2.042.855,3.049,1.293.081.035.137.172.166.273a6.166,6.166,0,0,0,.324,1.17,2.213,2.213,0,0,0,2.573,1.021,2.216,2.216,0,0,0,1.668-2.179.7.7,0,0,1,.156-.456c1.277-1.205,2.571-2.393,3.855-3.592a.349.349,0,0,1,.408-.089,2.259,2.259,0,0,0,1.794-.134,2.286,2.286,0,0,0,1.066-2.849,2.267,2.267,0,0,0-2.728-1.387,2.2,2.2,0,0,0-1.67,2.461,8.468,8.468,0,0,0,.345,1.168l-3.693,3.421c-.055-.052-.085-.079-.112-.108a2.364,2.364,0,0,0-3.491.092c-.129.15-.226.122-.368.061-.812-.346-1.619-.706-2.443-1.022-.381-.146-.654-.307-.577-.77a.582.582,0,0,0-.034-.212,2.227,2.227,0,0,0-2.366-1.738,2.2,2.2,0,0,0-2.122,2.249.487.487,0,0,1-.234.453c-.515.356-1.02.727-1.529,1.091l-1.561,1.114a3.245,3.245,0,0,0-.2-.253,2.367,2.367,0,0,0-3.123-.131,2.355,2.355,0,0,0-.529,2.84A2.28,2.28,0,0,0-1311.2,479.436Z" transform="translate(1318.037 -467.521)" fill="#015287"/>
</svg>
