<svg xmlns="http://www.w3.org/2000/svg" width="14.946" height="14.946" viewBox="0 0 14.946 14.946">
  <g id="Grupo_375" data-name="Grupo 375" transform="translate(-383.178 -84.658)">
    <path id="Trazado_380" data-name="Trazado 380" d="M390.676,84.658a7.473,7.473,0,1,1-7.5,7.564A7.467,7.467,0,0,1,390.676,84.658Zm-.733,7.019.027.026c-.013.085-.02.171-.039.255-.147.647-.3,1.292-.445,1.94-.137.61-.279,1.22-.4,1.834a2.389,2.389,0,0,0-.018.939.547.547,0,0,0,.52.486,1.246,1.246,0,0,0,.507-.085,6.839,6.839,0,0,0,2.456-1.774l-.346-.744a6.354,6.354,0,0,1-1.151.843,2.15,2.15,0,0,1,.024-.3c.131-.557.27-1.112.4-1.668.167-.7.35-1.391.488-2.094a4.174,4.174,0,0,0,.045-1,.483.483,0,0,0-.669-.464,2.821,2.821,0,0,0-.455.164A9.238,9.238,0,0,0,388.66,91.6c-.024.022-.052.068-.044.091.084.245.175.488.269.743.188-.138.359-.267.534-.391S389.768,91.8,389.943,91.677Zm1.376-2.517c.074-.009.149-.012.222-.027a1.231,1.231,0,0,0,.97-1.295.878.878,0,0,0-.742-.846,1.2,1.2,0,0,0-1.352,1.242A.884.884,0,0,0,391.319,89.16Z" fill="#015287"/>
  </g>
</svg>
