<svg xmlns="http://www.w3.org/2000/svg" width="31.433" height="31.433" viewBox="0 0 31.433 31.433">
  <g id="Grupo_687" data-name="Grupo 687" transform="translate(-1410.42 -1203.783)">
    <g id="Grupo_686" data-name="Grupo 686" transform="translate(1410.42 1203.783)">
      <path id="Trazado_165" data-name="Trazado 165" d="M8.372,0h14.69a8.372,8.372,0,0,1,8.372,8.372v14.69s-3.748,8.372-8.372,8.372H8.372A8.372,8.372,0,0,1,0,23.062V8.372A8.372,8.372,0,0,1,8.372,0Z" transform="translate(0 0)" fill="#015287"/>
    </g>
    <g id="lBrLrc.tif" transform="translate(1416.507 1208.5)">
      <g id="Grupo_2" data-name="Grupo 2" transform="translate(0 0)">
        <path id="Trazado_2" data-name="Trazado 2" d="M155.8,93.839c-.2.466-.355.566-.872.55a8.919,8.919,0,0,1-3.761-.933c-.061-.031-.125-.057-.216-.1,0,.111,0,.194,0,.278,0,2.063.017,4.126-.009,6.188a7.2,7.2,0,1,1-8.819-7.222,10.8,10.8,0,0,1,1.574-.183.622.622,0,0,1,.7.667q.011,1.687,0,3.373a.652.652,0,0,1-.706.692,2.462,2.462,0,1,0,2.431,3.1,3.226,3.226,0,0,0,.09-.785q.008-6.908,0-13.816a.811.811,0,0,1,.48-.842h3.782a.8.8,0,0,1,.491.793,4.16,4.16,0,0,0,4.022,4.027.782.782,0,0,1,.816.552Zm-1.3-.77c0-.709,0-1.388-.008-2.067,0-.044-.107-.112-.173-.125a5.43,5.43,0,0,1-4.45-3.951c-.083-.264-.124-.541-.184-.812h-2.183v.265q0,4.406,0,8.811c0,1.5.015,3.009-.005,4.513a3.751,3.751,0,1,1-4.582-3.746c.148-.035.2-.084.2-.237-.009-.594,0-1.189,0-1.784,0-.06-.011-.121-.018-.2-.141.021-.26.036-.379.055a5.912,5.912,0,1,0,6.942,5.98c.029-2.485.009-4.972.007-7.457a.694.694,0,0,1,.361-.7.75.75,0,0,1,.764.109,16.067,16.067,0,0,0,1.586.847A6.41,6.41,0,0,0,154.506,93.07Z" transform="translate(-136.544 -84.813)" fill="#fff"/>
      </g>
    </g>
  </g>
</svg>
