<svg id="Grupo_10" data-name="Grupo 10" xmlns="http://www.w3.org/2000/svg" width="31.433" height="31.433" viewBox="0 0 31.433 31.433">
  <path id="Trazado_167" data-name="Trazado 167" d="M8.372,0h14.69a8.372,8.372,0,0,1,8.372,8.372v14.69a8.372,8.372,0,0,1-8.372,8.372H8.372A8.372,8.372,0,0,1,0,23.062V8.372A8.372,8.372,0,0,1,8.372,0Z" transform="translate(0)" fill="#015287"/>
  <g id="Grupo_9" data-name="Grupo 9" transform="translate(7.04 10.092)">
    <path id="Trazado_19" data-name="Trazado 19" d="M834.991,440.489a3.728,3.728,0,0,0-3.728-3.729H821.73A3.728,3.728,0,0,0,818,440.489v4.436a3.728,3.728,0,0,0,3.728,3.728h9.533a3.728,3.728,0,0,0,3.728-3.728Zm-5.606,2.55-4.275,2.114c-.167.092-.737-.03-.737-.221v-4.341c0-.193.574-.315.743-.219l4.092,2.226C829.379,442.7,829.558,442.945,829.385,443.039Z" transform="translate(-818.002 -436.76)" fill="#fff"/>
  </g>
</svg>
