<svg xmlns="http://www.w3.org/2000/svg" width="108.925" height="166.313" viewBox="0 0 108.925 166.313">
  <g id="Grupo_224" data-name="Grupo 224" transform="translate(0 0)">
    <path id="Trazado_201" data-name="Trazado 201" d="M102.535,223.594a54.559,54.559,0,1,1-24.737-5.93A54.45,54.45,0,0,1,102.535,223.594Z" transform="translate(-23.337 -160.276)" fill="#ffce68"/>
    <path id="Trazado_202" data-name="Trazado 202" d="M78.366,324.927a52.233,52.233,0,1,1,23.723-98.78A52.222,52.222,0,0,1,130.6,272.693a52.235,52.235,0,0,1-52.234,52.234Z" transform="translate(-23.905 -160.844)" fill="#fdbc62"/>
    <path id="Trazado_203" data-name="Trazado 203" d="M79.989,320.181a45.866,45.866,0,1,1,32.431-13.434A45.561,45.561,0,0,1,79.989,320.181Z" transform="translate(-25.529 -162.467)" fill="none" stroke="#c49047" stroke-miterlimit="10" stroke-width="1.958"/>
    <path id="Trazado_204" data-name="Trazado 204" d="M83.753,309.18a31.1,31.1,0,1,1,21.992-9.108A30.895,30.895,0,0,1,83.753,309.18Z" transform="translate(-29.292 -166.231)" fill="none" stroke="#fdbc62" stroke-miterlimit="10" stroke-width="1.399"/>
    <path id="Trazado_205" data-name="Trazado 205" d="M82.027,314.224a37.869,37.869,0,1,1,17.2-71.615,37.861,37.861,0,0,1,20.67,33.745,37.87,37.87,0,0,1-37.87,37.87Z" transform="translate(-27.566 -164.505)" fill="none" stroke="#c49047" stroke-miterlimit="10" stroke-width="1.958"/>
    <path id="Trazado_206" data-name="Trazado 206" d="M107.053,211.25a26.267,26.267,0,0,1,2.28,9.8,54.56,54.56,0,0,0-50.7.644,26.271,26.271,0,0,1,2.3-10.443l.688-1.532a5.453,5.453,0,0,1,4.224-3.175l2.028-.286a116.4,116.4,0,0,1,32.252,0l2.025.286a5.453,5.453,0,0,1,4.224,3.175Zm-5.458,1.506v-2.013a1.055,1.055,0,0,0-1.055-1.055h-33.1a1.056,1.056,0,0,0-1.056,1.055v2.013a1.056,1.056,0,0,0,1.056,1.058h33.1A1.056,1.056,0,0,0,101.595,212.757Z" transform="translate(-30.505 -157.731)" fill="#fdbc62"/>
    <g id="Grupo_133" data-name="Grupo 133" transform="translate(37.734 0)">
      <path id="Trazado_207" data-name="Trazado 207" d="M126.35,145.648l-18.884,52.734H96.973L115.8,145.691v-.043Z" transform="translate(-76.027 -145.648)" fill="#4db1e8"/>
      <path id="Trazado_208" data-name="Trazado 208" d="M113.161,145.648v.043L94.332,198.382H83.971L102.8,145.691v-.043Z" transform="translate(-73.387 -145.648)" fill="#296c91"/>
      <path id="Trazado_209" data-name="Trazado 209" d="M100.1,145.648v.043L81.273,198.382H70.689l18.884-52.734Z" transform="translate(-70.689 -145.648)" fill="#015287"/>
    </g>
    <ellipse id="Elipse_4" data-name="Elipse 4" cx="31.099" cy="31.099" rx="31.099" ry="31.099" transform="translate(40.137 139.668) rotate(-84.235)" fill="#ffdeae"/>
    <g id="Grupo_134" data-name="Grupo 134" transform="translate(18.847 0)">
      <path id="Trazado_210" data-name="Trazado 210" d="M46.987,145.648l18.884,52.734H76.364L57.535,145.691v-.043Z" transform="translate(-46.987 -145.648)" fill="#015287"/>
      <path id="Trazado_211" data-name="Trazado 211" d="M60.224,145.648v.043l18.829,52.691H89.413L70.585,145.691v-.043Z" transform="translate(-49.676 -145.648)" fill="#296c91"/>
      <path id="Trazado_212" data-name="Trazado 212" d="M73.225,145.648v.043l18.829,52.691h10.585L83.755,145.648Z" transform="translate(-52.317 -145.648)" fill="#4db1e8"/>
    </g>
    <ellipse id="Elipse_5" data-name="Elipse 5" cx="29.074" cy="29.074" rx="29.074" ry="29.074" transform="translate(40.727 135.724) rotate(-80.495)" fill="#ffce68"/>
    <ellipse id="Elipse_6" data-name="Elipse 6" cx="22.139" cy="22.139" rx="22.139" ry="22.139" transform="translate(48.714 130.033) rotate(-80.502)" fill="#c49047"/>
    <g id="Grupo_135" data-name="Grupo 135" transform="translate(64.797 97.722)">
      <path id="Trazado_213" data-name="Trazado 213" d="M123.461,296.535H104.649v-4.921h5.942V276.719h-5.942v-4.6a20.526,20.526,0,0,0,2.611-.161,6.909,6.909,0,0,0,2.082-.559,3.515,3.515,0,0,0,1.476-1.23,3.9,3.9,0,0,0,.568-1.893h6.264v23.336h5.81Z" transform="translate(-104.649 -268.278)" fill="#ffce68"/>
    </g>
    <g id="Grupo_194" data-name="Grupo 194" transform="translate(46.376 102.166)">
      <g id="Grupo_136" data-name="Grupo 136" transform="translate(0.78 0)">
        <path id="Trazado_214" data-name="Trazado 214" d="M83.432,273.855v.006a11.159,11.159,0,0,0,.473,3.352,7.547,7.547,0,0,1,.076,3.4,6.483,6.483,0,0,1-1.461-2.691A12.915,12.915,0,0,1,83.432,273.855Z" transform="translate(-82.512 -273.855)" fill="#c49047"/>
        <path id="Trazado_215" data-name="Trazado 215" d="M83.991,274.985a21.979,21.979,0,0,1,1.116,2.522,4.238,4.238,0,0,1-.532,2.71.933.933,0,0,1-.359.4,7.547,7.547,0,0,0-.076-3.4,11.16,11.16,0,0,1-.473-3.352A5.522,5.522,0,0,0,83.991,274.985Z" transform="translate(-82.746 -273.856)" fill="#ffdeae"/>
      </g>
      <g id="Grupo_137" data-name="Grupo 137" transform="translate(2.203 1.87)">
        <path id="Trazado_216" data-name="Trazado 216" d="M88.345,276.2l0,0a11.137,11.137,0,0,0-1.858,2.831,7.548,7.548,0,0,1-2.187,2.6,6.476,6.476,0,0,1,.681-2.986A12.9,12.9,0,0,1,88.345,276.2Z" transform="translate(-84.297 -276.202)" fill="#c49047"/>
        <path id="Trazado_217" data-name="Trazado 217" d="M87.844,277.265a22.173,22.173,0,0,1-.827,2.631,4.25,4.25,0,0,1-2.188,1.685.938.938,0,0,1-.532.06,7.548,7.548,0,0,0,2.187-2.6,11.137,11.137,0,0,1,1.858-2.831A5.432,5.432,0,0,0,87.844,277.265Z" transform="translate(-84.297 -276.203)" fill="#ffdeae"/>
      </g>
      <g id="Grupo_140" data-name="Grupo 140" transform="translate(0.099 4.736)">
        <g id="Grupo_138" data-name="Grupo 138">
          <path id="Trazado_218" data-name="Trazado 218" d="M82.055,279.8l0,.006a11.192,11.192,0,0,0,.959,3.247,7.556,7.556,0,0,1,.572,3.351,6.477,6.477,0,0,1-1.838-2.449A12.924,12.924,0,0,1,82.055,279.8Z" transform="translate(-81.657 -279.798)" fill="#c49047"/>
          <path id="Trazado_219" data-name="Trazado 219" d="M82.643,280.868a22.123,22.123,0,0,1,1.473,2.331,4.248,4.248,0,0,1-.129,2.759.938.938,0,0,1-.3.445,7.555,7.555,0,0,0-.572-3.351,11.192,11.192,0,0,1-.959-3.247A5.554,5.554,0,0,0,82.643,280.868Z" transform="translate(-81.759 -279.799)" fill="#ffdeae"/>
        </g>
        <g id="Grupo_139" data-name="Grupo 139" transform="translate(1.881 1.183)">
          <path id="Trazado_220" data-name="Trazado 220" d="M87.309,281.283l0,0a11.185,11.185,0,0,0-1.423,3.072,7.549,7.549,0,0,1-1.782,2.894,6.482,6.482,0,0,1,.235-3.053A12.921,12.921,0,0,1,87.309,281.283Z" transform="translate(-84.017 -281.283)" fill="#c49047"/>
          <path id="Trazado_221" data-name="Trazado 221" d="M86.991,282.408a22.314,22.314,0,0,1-.434,2.724,4.244,4.244,0,0,1-1.919,1.987.931.931,0,0,1-.516.137,7.55,7.55,0,0,0,1.782-2.894,11.184,11.184,0,0,1,1.423-3.072A5.514,5.514,0,0,0,86.991,282.408Z" transform="translate(-84.039 -281.284)" fill="#ffdeae"/>
        </g>
      </g>
      <g id="Grupo_143" data-name="Grupo 143" transform="translate(0 9.877)">
        <g id="Grupo_141" data-name="Grupo 141">
          <path id="Trazado_222" data-name="Trazado 222" d="M81.533,286.249l0,0a11.165,11.165,0,0,0,1.685,2.936,7.549,7.549,0,0,1,1.332,3.127,6.477,6.477,0,0,1-2.356-1.956A12.933,12.933,0,0,1,81.533,286.249Z" transform="translate(-81.533 -286.249)" fill="#c49047"/>
          <path id="Trazado_223" data-name="Trazado 223" d="M82.255,287.176a22.314,22.314,0,0,1,1.973,1.928,4.245,4.245,0,0,1,.513,2.713.935.935,0,0,1-.186.5,7.549,7.549,0,0,0-1.332-3.127,11.165,11.165,0,0,1-1.685-2.937A5.467,5.467,0,0,0,82.255,287.176Z" transform="translate(-81.534 -286.25)" fill="#ffdeae"/>
        </g>
        <g id="Grupo_142" data-name="Grupo 142" transform="translate(2.639 0.045)">
          <path id="Trazado_224" data-name="Trazado 224" d="M87.126,286.3l0,.006a11.156,11.156,0,0,0-.673,3.318,7.559,7.559,0,0,1-1.064,3.229,6.487,6.487,0,0,1-.478-3.025A12.911,12.911,0,0,1,87.126,286.3Z" transform="translate(-84.845 -286.305)" fill="#c49047"/>
          <path id="Trazado_225" data-name="Trazado 225" d="M87.193,287.479a22.15,22.15,0,0,1,.21,2.75A4.246,4.246,0,0,1,86,292.606a.938.938,0,0,1-.47.253,7.559,7.559,0,0,0,1.064-3.229,11.155,11.155,0,0,1,.673-3.318A5.507,5.507,0,0,0,87.193,287.479Z" transform="translate(-84.983 -286.306)" fill="#ffdeae"/>
        </g>
      </g>
      <g id="Grupo_146" data-name="Grupo 146" transform="translate(0.58 14.201)">
        <g id="Grupo_144" data-name="Grupo 144" transform="translate(0 0.496)">
          <path id="Trazado_226" data-name="Trazado 226" d="M82.261,292.3l0,0a11.169,11.169,0,0,0,2,2.733A7.551,7.551,0,0,1,85.931,298a6.485,6.485,0,0,1-2.557-1.685A12.961,12.961,0,0,1,82.261,292.3Z" transform="translate(-82.261 -292.298)" fill="#c49047"/>
          <path id="Trazado_227" data-name="Trazado 227" d="M83.08,293.142a22.169,22.169,0,0,1,2.173,1.7,4.247,4.247,0,0,1,.808,2.642.936.936,0,0,1-.13.518,7.551,7.551,0,0,0-1.669-2.962,11.165,11.165,0,0,1-2-2.733A5.472,5.472,0,0,0,83.08,293.142Z" transform="translate(-82.262 -292.299)" fill="#ffdeae"/>
        </g>
        <g id="Grupo_145" data-name="Grupo 145" transform="translate(3.061)">
          <path id="Trazado_228" data-name="Trazado 228" d="M87.936,291.676v.006a11.149,11.149,0,0,0-.3,3.372,7.552,7.552,0,0,1-.7,3.325,6.477,6.477,0,0,1-.807-2.953A12.945,12.945,0,0,1,87.936,291.676Z" transform="translate(-86.102 -291.676)" fill="#c49047"/>
          <path id="Trazado_229" data-name="Trazado 229" d="M88.205,292.851a22.1,22.1,0,0,1,.51,2.71,4.245,4.245,0,0,1-1.136,2.517.933.933,0,0,1-.44.3,7.552,7.552,0,0,0,.7-3.325,11.148,11.148,0,0,1,.3-3.372A5.475,5.475,0,0,0,88.205,292.851Z" transform="translate(-86.313 -291.678)" fill="#ffdeae"/>
        </g>
      </g>
      <g id="Grupo_149" data-name="Grupo 149" transform="translate(1.862 18.031)">
        <g id="Grupo_147" data-name="Grupo 147" transform="translate(0 1.394)">
          <path id="Trazado_230" data-name="Trazado 230" d="M83.869,298.231l0,0a11.165,11.165,0,0,0,2.47,2.316,7.548,7.548,0,0,1,2.188,2.6,6.477,6.477,0,0,1-2.824-1.182A12.924,12.924,0,0,1,83.869,298.231Z" transform="translate(-83.869 -298.231)" fill="#c49047"/>
          <path id="Trazado_231" data-name="Trazado 231" d="M84.83,298.908a22.27,22.27,0,0,1,2.45,1.266,4.245,4.245,0,0,1,1.284,2.446.931.931,0,0,1-.032.533,7.548,7.548,0,0,0-2.188-2.6,11.163,11.163,0,0,1-2.47-2.316A5.484,5.484,0,0,0,84.83,298.908Z" transform="translate(-83.87 -298.232)" fill="#ffdeae"/>
        </g>
        <g id="Grupo_148" data-name="Grupo 148" transform="translate(3.627)">
          <path id="Trazado_232" data-name="Trazado 232" d="M89.511,296.482v.006a11.169,11.169,0,0,0,.326,3.37,7.552,7.552,0,0,1-.074,3.4,6.474,6.474,0,0,1-1.341-2.752A12.927,12.927,0,0,1,89.511,296.482Z" transform="translate(-88.42 -296.482)" fill="#c49047"/>
          <path id="Trazado_233" data-name="Trazado 233" d="M90.061,297.625a22.094,22.094,0,0,1,1,2.568,4.245,4.245,0,0,1-.65,2.685.936.936,0,0,1-.376.379,7.553,7.553,0,0,0,.074-3.4,11.169,11.169,0,0,1-.326-3.37A5.509,5.509,0,0,0,90.061,297.625Z" transform="translate(-88.695 -296.483)" fill="#ffdeae"/>
        </g>
      </g>
      <g id="Grupo_152" data-name="Grupo 152" transform="translate(3.858 21.562)">
        <g id="Grupo_150" data-name="Grupo 150" transform="translate(0 2.199)">
          <path id="Trazado_234" data-name="Trazado 234" d="M86.374,303.672l.006,0a11.138,11.138,0,0,0,2.837,1.847,7.552,7.552,0,0,1,2.61,2.178,6.479,6.479,0,0,1-2.988-.669A12.949,12.949,0,0,1,86.374,303.672Z" transform="translate(-86.374 -303.672)" fill="#c49047"/>
          <path id="Trazado_235" data-name="Trazado 235" d="M87.439,304.17a22.226,22.226,0,0,1,2.634.818,4.246,4.246,0,0,1,1.693,2.183.933.933,0,0,1,.062.531,7.552,7.552,0,0,0-2.61-2.178,11.139,11.139,0,0,1-2.837-1.847A5.438,5.438,0,0,0,87.439,304.17Z" transform="translate(-86.375 -303.673)" fill="#ffdeae"/>
        </g>
        <g id="Grupo_151" data-name="Grupo 151" transform="translate(3.955)">
          <path id="Trazado_236" data-name="Trazado 236" d="M91.783,300.913l0,.006a11.148,11.148,0,0,0,.911,3.26,7.555,7.555,0,0,1,.523,3.359,6.475,6.475,0,0,1-1.8-2.475A12.914,12.914,0,0,1,91.783,300.913Z" transform="translate(-91.337 -300.913)" fill="#c49047"/>
          <path id="Trazado_237" data-name="Trazado 237" d="M92.368,301.99a21.971,21.971,0,0,1,1.438,2.352,4.246,4.246,0,0,1-.17,2.757.939.939,0,0,1-.3.439,7.555,7.555,0,0,0-.523-3.359,11.148,11.148,0,0,1-.911-3.26A5.5,5.5,0,0,0,92.368,301.99Z" transform="translate(-91.451 -300.914)" fill="#ffdeae"/>
        </g>
      </g>
      <g id="Grupo_155" data-name="Grupo 155" transform="translate(7.126 24.884)">
        <g id="Grupo_153" data-name="Grupo 153" transform="translate(0 3.205)">
          <path id="Trazado_238" data-name="Trazado 238" d="M90.475,309.1l.006,0a11.164,11.164,0,0,0,3.2,1.1,7.552,7.552,0,0,1,3.062,1.476,6.481,6.481,0,0,1-3.061.079A12.922,12.922,0,0,1,90.475,309.1Z" transform="translate(-90.475 -309.104)" fill="#c49047"/>
          <path id="Trazado_239" data-name="Trazado 239" d="M91.629,309.327a22.323,22.323,0,0,1,2.754.151,4.244,4.244,0,0,1,2.173,1.7.936.936,0,0,1,.19.5,7.552,7.552,0,0,0-3.062-1.476,11.164,11.164,0,0,1-3.2-1.1A5.483,5.483,0,0,0,91.629,309.327Z" transform="translate(-90.476 -309.104)" fill="#ffdeae"/>
        </g>
        <g id="Grupo_154" data-name="Grupo 154" transform="translate(3.732)">
          <path id="Trazado_240" data-name="Trazado 240" d="M95.158,305.082l0,0a11.166,11.166,0,0,0,1.678,2.941,7.55,7.55,0,0,1,1.325,3.13,6.488,6.488,0,0,1-2.352-1.962A12.942,12.942,0,0,1,95.158,305.082Z" transform="translate(-95.158 -305.082)" fill="#c49047"/>
          <path id="Trazado_241" data-name="Trazado 241" d="M95.878,306.012a22.143,22.143,0,0,1,1.968,1.932,4.239,4.239,0,0,1,.507,2.715.939.939,0,0,1-.187.5,7.55,7.55,0,0,0-1.325-3.13,11.165,11.165,0,0,1-1.678-2.94A5.473,5.473,0,0,0,95.878,306.012Z" transform="translate(-95.159 -305.083)" fill="#ffdeae"/>
        </g>
      </g>
      <g id="Grupo_158" data-name="Grupo 158" transform="translate(10.689 27.851)">
        <g id="Grupo_156" data-name="Grupo 156" transform="translate(0 3.338)">
          <path id="Trazado_242" data-name="Trazado 242" d="M94.946,312.994l.006,0a11.177,11.177,0,0,0,3.239.983,7.549,7.549,0,0,1,3.114,1.363,6.478,6.478,0,0,1-3.057.19A12.9,12.9,0,0,1,94.946,312.994Z" transform="translate(-94.946 -312.994)" fill="#c49047"/>
          <path id="Trazado_243" data-name="Trazado 243" d="M96.108,313.176a22.216,22.216,0,0,1,2.757.051,4.248,4.248,0,0,1,2.234,1.624.936.936,0,0,1,.208.492,7.55,7.55,0,0,0-3.114-1.363A11.177,11.177,0,0,1,94.953,313,5.531,5.531,0,0,0,96.108,313.176Z" transform="translate(-94.947 -312.995)" fill="#ffdeae"/>
        </g>
        <g id="Grupo_157" data-name="Grupo 157" transform="translate(3.613)">
          <path id="Trazado_244" data-name="Trazado 244" d="M99.48,308.8l0,0a11.183,11.183,0,0,0,1.784,2.877,7.551,7.551,0,0,1,1.439,3.08,6.482,6.482,0,0,1-2.422-1.874A12.932,12.932,0,0,1,99.48,308.8Z" transform="translate(-99.48 -308.805)" fill="#c49047"/>
          <path id="Trazado_245" data-name="Trazado 245" d="M100.232,309.707a21.994,21.994,0,0,1,2.038,1.859,4.246,4.246,0,0,1,.606,2.694.938.938,0,0,1-.169.507,7.551,7.551,0,0,0-1.439-3.08,11.183,11.183,0,0,1-1.784-2.877A5.543,5.543,0,0,0,100.232,309.707Z" transform="translate(-99.481 -308.806)" fill="#ffdeae"/>
        </g>
      </g>
      <g id="Grupo_159" data-name="Grupo 159" transform="translate(15.268 33.284)">
        <path id="Trazado_246" data-name="Trazado 246" d="M100.692,316.683h.006a11.19,11.19,0,0,0,3.385.072,7.551,7.551,0,0,1,3.366.473,6.475,6.475,0,0,1-2.892,1.008A12.938,12.938,0,0,1,100.692,316.683Z" transform="translate(-100.692 -315.838)" fill="#c49047"/>
        <path id="Trazado_247" data-name="Trazado 247" d="M101.859,316.328a22.244,22.244,0,0,1,2.669-.694,4.237,4.237,0,0,1,2.589.962.936.936,0,0,1,.333.418,7.551,7.551,0,0,0-3.366-.473,11.187,11.187,0,0,1-3.385-.073A5.489,5.489,0,0,0,101.859,316.328Z" transform="translate(-100.693 -315.622)" fill="#ffdeae"/>
      </g>
      <g id="Grupo_160" data-name="Grupo 160" transform="translate(20.642 34.475)">
        <path id="Trazado_248" data-name="Trazado 248" d="M107.436,318.845h.006a11.2,11.2,0,0,0,3.349-.495,7.553,7.553,0,0,1,3.4-.1,6.481,6.481,0,0,1-2.682,1.478A12.951,12.951,0,0,1,107.436,318.845Z" transform="translate(-107.436 -317.316)" fill="#c49047"/>
        <path id="Trazado_249" data-name="Trazado 249" d="M108.563,318.314a22.183,22.183,0,0,1,2.515-1.132,4.242,4.242,0,0,1,2.713.515.936.936,0,0,1,.4.356,7.553,7.553,0,0,0-3.4.1,11.2,11.2,0,0,1-3.349.495A5.488,5.488,0,0,0,108.563,318.314Z" transform="translate(-107.437 -317.117)" fill="#ffdeae"/>
      </g>
      <g id="Grupo_161" data-name="Grupo 161" transform="translate(17.846 29.939)">
        <path id="Trazado_250" data-name="Trazado 250" d="M103.928,311.425l0,0a11.175,11.175,0,0,0,2.494,2.289,7.56,7.56,0,0,1,2.216,2.578,6.477,6.477,0,0,1-2.838-1.152A12.911,12.911,0,0,1,103.928,311.425Z" transform="translate(-103.928 -311.425)" fill="#c49047"/>
        <path id="Trazado_251" data-name="Trazado 251" d="M104.9,312.091a22.381,22.381,0,0,1,2.463,1.241,4.245,4.245,0,0,1,1.309,2.432.935.935,0,0,1-.025.533,7.56,7.56,0,0,0-2.216-2.578,11.175,11.175,0,0,1-2.494-2.289A5.448,5.448,0,0,0,104.9,312.091Z" transform="translate(-103.929 -311.426)" fill="#ffdeae"/>
      </g>
      <g id="Grupo_162" data-name="Grupo 162" transform="translate(22.406 31.914)">
        <path id="Trazado_252" data-name="Trazado 252" d="M109.65,313.9l0,0a9.8,9.8,0,0,0,2.5,1.593,6.616,6.616,0,0,1,2.3,1.885,5.679,5.679,0,0,1-2.622-.56A11.333,11.333,0,0,1,109.65,313.9Z" transform="translate(-109.65 -313.903)" fill="#c49047"/>
        <path id="Trazado_253" data-name="Trazado 253" d="M110.587,314.33a19.459,19.459,0,0,1,2.313.694,3.714,3.714,0,0,1,1.5,1.9.819.819,0,0,1,.059.464,6.616,6.616,0,0,0-2.3-1.885,9.8,9.8,0,0,1-2.5-1.593A4.806,4.806,0,0,0,110.587,314.33Z" transform="translate(-109.651 -313.904)" fill="#ffdeae"/>
      </g>
      <g id="Grupo_163" data-name="Grupo 163" transform="translate(24.407 35.319)">
        <path id="Trazado_254" data-name="Trazado 254" d="M112.161,320.1l0,0a5.8,5.8,0,0,0,1.436-1,3.893,3.893,0,0,1,1.549-.823,3.344,3.344,0,0,1-.9,1.3A6.684,6.684,0,0,1,112.161,320.1Z" transform="translate(-112.161 -318.197)" fill="#c49047"/>
        <path id="Trazado_255" data-name="Trazado 255" d="M112.606,319.669a11.431,11.431,0,0,1,.9-1.1,2.185,2.185,0,0,1,1.372-.384.483.483,0,0,1,.266.074,3.893,3.893,0,0,0-1.549.823,5.8,5.8,0,0,1-1.436,1A2.843,2.843,0,0,0,112.606,319.669Z" transform="translate(-112.162 -318.176)" fill="#ffdeae"/>
      </g>
      <g id="Grupo_193" data-name="Grupo 193" transform="translate(28.259 0)">
        <g id="Grupo_164" data-name="Grupo 164" transform="translate(24.192)">
          <path id="Trazado_256" data-name="Trazado 256" d="M149.055,273.855v.006a11.159,11.159,0,0,1-.473,3.352,7.559,7.559,0,0,0-.076,3.4,6.484,6.484,0,0,0,1.461-2.691A12.915,12.915,0,0,0,149.055,273.855Z" transform="translate(-147.553 -273.855)" fill="#c49047"/>
          <path id="Trazado_257" data-name="Trazado 257" d="M148.531,274.985a21.979,21.979,0,0,0-1.116,2.522,4.238,4.238,0,0,0,.531,2.71.933.933,0,0,0,.359.4,7.559,7.559,0,0,1,.076-3.4,11.159,11.159,0,0,0,.473-3.352A5.465,5.465,0,0,1,148.531,274.985Z" transform="translate(-147.353 -273.856)" fill="#ffdeae"/>
        </g>
        <g id="Grupo_165" data-name="Grupo 165" transform="translate(21.144 1.87)">
          <path id="Trazado_258" data-name="Trazado 258" d="M143.528,276.2l0,0a11.16,11.16,0,0,1,1.858,2.831,7.557,7.557,0,0,0,2.187,2.6,6.476,6.476,0,0,0-.681-2.986A12.9,12.9,0,0,0,143.528,276.2Z" transform="translate(-143.528 -276.202)" fill="#c49047"/>
          <path id="Trazado_259" data-name="Trazado 259" d="M144.03,277.265a22.163,22.163,0,0,0,.827,2.631,4.25,4.25,0,0,0,2.188,1.685.938.938,0,0,0,.532.06,7.557,7.557,0,0,1-2.187-2.6,11.159,11.159,0,0,0-1.858-2.831A5.433,5.433,0,0,1,144.03,277.265Z" transform="translate(-143.529 -276.203)" fill="#ffdeae"/>
        </g>
        <g id="Grupo_168" data-name="Grupo 168" transform="translate(22.123 4.736)">
          <g id="Grupo_166" data-name="Grupo 166" transform="translate(2.642)">
            <path id="Trazado_260" data-name="Trazado 260" d="M150.356,279.8l0,.006a11.166,11.166,0,0,1-.959,3.247,7.555,7.555,0,0,0-.572,3.351,6.485,6.485,0,0,0,1.839-2.449A12.942,12.942,0,0,0,150.356,279.8Z" transform="translate(-148.223 -279.798)" fill="#c49047"/>
            <path id="Trazado_261" data-name="Trazado 261" d="M149.718,280.868a22.113,22.113,0,0,0-1.473,2.331,4.248,4.248,0,0,0,.129,2.759.938.938,0,0,0,.3.445,7.555,7.555,0,0,1,.572-3.351,11.166,11.166,0,0,0,.959-3.247A5.556,5.556,0,0,1,149.718,280.868Z" transform="translate(-148.072 -279.799)" fill="#ffdeae"/>
          </g>
          <g id="Grupo_167" data-name="Grupo 167" transform="translate(0 1.183)">
            <path id="Trazado_262" data-name="Trazado 262" d="M144.757,281.283l0,0a11.184,11.184,0,0,1,1.423,3.072,7.55,7.55,0,0,0,1.782,2.894,6.482,6.482,0,0,0-.235-3.053A12.921,12.921,0,0,0,144.757,281.283Z" transform="translate(-144.757 -281.283)" fill="#c49047"/>
            <path id="Trazado_263" data-name="Trazado 263" d="M145.1,282.408a22.317,22.317,0,0,0,.434,2.724,4.25,4.25,0,0,0,1.918,1.987.934.934,0,0,0,.516.137,7.549,7.549,0,0,1-1.782-2.894,11.183,11.183,0,0,0-1.423-3.072A5.514,5.514,0,0,1,145.1,282.408Z" transform="translate(-144.758 -281.284)" fill="#ffdeae"/>
          </g>
        </g>
        <g id="Grupo_171" data-name="Grupo 171" transform="translate(22.334 9.877)">
          <g id="Grupo_169" data-name="Grupo 169" transform="translate(1.801)">
            <path id="Trazado_264" data-name="Trazado 264" d="M150.6,286.249l0,0a11.166,11.166,0,0,1-1.685,2.936,7.549,7.549,0,0,0-1.332,3.127,6.477,6.477,0,0,0,2.356-1.956A12.933,12.933,0,0,0,150.6,286.249Z" transform="translate(-147.342 -286.249)" fill="#c49047"/>
            <path id="Trazado_265" data-name="Trazado 265" d="M149.82,287.176a22.316,22.316,0,0,0-1.973,1.928,4.245,4.245,0,0,0-.513,2.713.935.935,0,0,0,.186.5,7.549,7.549,0,0,1,1.332-3.127,11.166,11.166,0,0,0,1.685-2.937A5.467,5.467,0,0,1,149.82,287.176Z" transform="translate(-147.281 -286.25)" fill="#ffdeae"/>
          </g>
          <g id="Grupo_170" data-name="Grupo 170" transform="translate(0 0.045)">
            <path id="Trazado_266" data-name="Trazado 266" d="M145.2,286.3v.006a11.156,11.156,0,0,1,.673,3.318,7.559,7.559,0,0,0,1.064,3.229,6.476,6.476,0,0,0,.478-3.025A12.933,12.933,0,0,0,145.2,286.3Z" transform="translate(-145.057 -286.305)" fill="#c49047"/>
            <path id="Trazado_267" data-name="Trazado 267" d="M145.233,287.479a22.148,22.148,0,0,0-.21,2.75,4.246,4.246,0,0,0,1.406,2.377.938.938,0,0,0,.47.253,7.559,7.559,0,0,1-1.064-3.229,11.155,11.155,0,0,0-.673-3.318A5.5,5.5,0,0,1,145.233,287.479Z" transform="translate(-145.021 -286.306)" fill="#ffdeae"/>
          </g>
        </g>
        <g id="Grupo_174" data-name="Grupo 174" transform="translate(21.348 14.201)">
          <g id="Grupo_172" data-name="Grupo 172" transform="translate(1.655 0.496)">
            <path id="Trazado_268" data-name="Trazado 268" d="M149.709,292.3l0,0a11.168,11.168,0,0,1-2,2.733A7.55,7.55,0,0,0,146.039,298a6.485,6.485,0,0,0,2.557-1.685A12.962,12.962,0,0,0,149.709,292.3Z" transform="translate(-145.897 -292.298)" fill="#c49047"/>
            <path id="Trazado_269" data-name="Trazado 269" d="M148.854,293.142a22.16,22.16,0,0,0-2.172,1.7,4.242,4.242,0,0,0-.809,2.642A.936.936,0,0,0,146,298a7.55,7.55,0,0,1,1.669-2.962,11.166,11.166,0,0,0,2-2.733A5.472,5.472,0,0,1,148.854,293.142Z" transform="translate(-145.86 -292.299)" fill="#ffdeae"/>
          </g>
          <g id="Grupo_173" data-name="Grupo 173">
            <path id="Trazado_270" data-name="Trazado 270" d="M144.5,291.676v.006a11.187,11.187,0,0,1,.3,3.372,7.552,7.552,0,0,0,.7,3.325,6.477,6.477,0,0,0,.807-2.953A12.946,12.946,0,0,0,144.5,291.676Z" transform="translate(-143.93 -291.676)" fill="#c49047"/>
            <path id="Trazado_271" data-name="Trazado 271" d="M144.3,292.851a22.254,22.254,0,0,0-.51,2.71,4.245,4.245,0,0,0,1.136,2.517.933.933,0,0,0,.44.3,7.552,7.552,0,0,1-.7-3.325,11.186,11.186,0,0,0-.3-3.372A5.552,5.552,0,0,1,144.3,292.851Z" transform="translate(-143.784 -291.678)" fill="#ffdeae"/>
          </g>
        </g>
        <g id="Grupo_177" data-name="Grupo 177" transform="translate(19.494 18.031)">
          <g id="Grupo_175" data-name="Grupo 175" transform="translate(1.323 1.394)">
            <path id="Trazado_272" data-name="Trazado 272" d="M147.848,298.231l0,0a11.165,11.165,0,0,1-2.47,2.316,7.548,7.548,0,0,0-2.188,2.6,6.477,6.477,0,0,0,2.824-1.182A12.9,12.9,0,0,0,147.848,298.231Z" transform="translate(-143.131 -298.231)" fill="#c49047"/>
            <path id="Trazado_273" data-name="Trazado 273" d="M146.873,298.908a22.275,22.275,0,0,0-2.45,1.266,4.25,4.25,0,0,0-1.284,2.446.931.931,0,0,0,.032.533,7.548,7.548,0,0,1,2.188-2.6,11.164,11.164,0,0,0,2.47-2.316A5.485,5.485,0,0,1,146.873,298.908Z" transform="translate(-143.117 -298.232)" fill="#ffdeae"/>
          </g>
          <g id="Grupo_176" data-name="Grupo 176">
            <path id="Trazado_274" data-name="Trazado 274" d="M142.987,296.482v.006a11.168,11.168,0,0,1-.326,3.37,7.553,7.553,0,0,0,.074,3.4,6.483,6.483,0,0,0,1.341-2.752A12.927,12.927,0,0,0,142.987,296.482Z" transform="translate(-141.665 -296.482)" fill="#c49047"/>
            <path id="Trazado_275" data-name="Trazado 275" d="M142.5,297.625a22.084,22.084,0,0,0-1,2.568,4.245,4.245,0,0,0,.65,2.685.936.936,0,0,0,.376.379,7.553,7.553,0,0,1-.074-3.4,11.169,11.169,0,0,0,.326-3.37A5.508,5.508,0,0,1,142.5,297.625Z" transform="translate(-141.457 -296.483)" fill="#ffdeae"/>
          </g>
        </g>
        <g id="Grupo_180" data-name="Grupo 180" transform="translate(17.068 21.562)">
          <g id="Grupo_178" data-name="Grupo 178" transform="translate(1.002 2.199)">
            <path id="Trazado_276" data-name="Trazado 276" d="M145.141,303.672l0,0a11.163,11.163,0,0,1-2.838,1.847,7.552,7.552,0,0,0-2.61,2.178,6.479,6.479,0,0,0,2.988-.669A12.949,12.949,0,0,0,145.141,303.672Z" transform="translate(-139.675 -303.672)" fill="#c49047"/>
            <path id="Trazado_277" data-name="Trazado 277" d="M144.074,304.17a22.224,22.224,0,0,0-2.634.818,4.246,4.246,0,0,0-1.693,2.183.933.933,0,0,0-.062.531,7.552,7.552,0,0,1,2.61-2.178,11.164,11.164,0,0,0,2.838-1.847A5.477,5.477,0,0,1,144.074,304.17Z" transform="translate(-139.671 -303.673)" fill="#ffdeae"/>
          </g>
          <g id="Grupo_179" data-name="Grupo 179">
            <path id="Trazado_278" data-name="Trazado 278" d="M140.639,300.913l0,.006a11.123,11.123,0,0,1-.911,3.26,7.554,7.554,0,0,0-.523,3.359,6.475,6.475,0,0,0,1.8-2.475A12.914,12.914,0,0,0,140.639,300.913Z" transform="translate(-138.571 -300.913)" fill="#c49047"/>
            <path id="Trazado_279" data-name="Trazado 279" d="M140.011,301.99a21.976,21.976,0,0,0-1.438,2.352,4.246,4.246,0,0,0,.17,2.757.939.939,0,0,0,.3.439,7.554,7.554,0,0,1,.523-3.359,11.123,11.123,0,0,0,.911-3.26A5.51,5.51,0,0,1,140.011,301.99Z" transform="translate(-138.414 -300.914)" fill="#ffdeae"/>
          </g>
        </g>
        <g id="Grupo_183" data-name="Grupo 183" transform="translate(13.289 24.884)">
          <g id="Grupo_181" data-name="Grupo 181" transform="translate(0.711 3.205)">
            <path id="Trazado_280" data-name="Trazado 280" d="M140.832,309.1l-.006,0a11.164,11.164,0,0,1-3.2,1.1,7.552,7.552,0,0,0-3.062,1.476,6.481,6.481,0,0,0,3.061.079A12.921,12.921,0,0,0,140.832,309.1Z" transform="translate(-134.563 -309.104)" fill="#c49047"/>
            <path id="Trazado_281" data-name="Trazado 281" d="M139.68,309.327a22.331,22.331,0,0,0-2.754.151,4.247,4.247,0,0,0-2.173,1.7.936.936,0,0,0-.19.5,7.552,7.552,0,0,1,3.062-1.476,11.164,11.164,0,0,0,3.2-1.1A5.471,5.471,0,0,1,139.68,309.327Z" transform="translate(-134.563 -309.104)" fill="#ffdeae"/>
          </g>
          <g id="Grupo_182" data-name="Grupo 182">
            <path id="Trazado_282" data-name="Trazado 282" d="M136.981,305.082l0,0a11.166,11.166,0,0,1-1.678,2.941,7.55,7.55,0,0,0-1.325,3.13,6.488,6.488,0,0,0,2.352-1.962A12.943,12.943,0,0,0,136.981,305.082Z" transform="translate(-133.733 -305.082)" fill="#c49047"/>
            <path id="Trazado_283" data-name="Trazado 283" d="M136.2,306.012a22.038,22.038,0,0,0-1.968,1.932,4.239,4.239,0,0,0-.507,2.715.939.939,0,0,0,.187.5,7.55,7.55,0,0,1,1.325-3.13,11.165,11.165,0,0,0,1.678-2.94A5.473,5.473,0,0,1,136.2,306.012Z" transform="translate(-133.671 -305.083)" fill="#ffdeae"/>
          </g>
        </g>
        <g id="Grupo_186" data-name="Grupo 186" transform="translate(9.662 27.851)">
          <g id="Grupo_184" data-name="Grupo 184" transform="translate(0.685 3.338)">
            <path id="Trazado_284" data-name="Trazado 284" d="M136.338,312.994l-.006,0a11.177,11.177,0,0,1-3.239.983,7.549,7.549,0,0,0-3.114,1.363,6.478,6.478,0,0,0,3.057.19A12.9,12.9,0,0,0,136.338,312.994Z" transform="translate(-129.979 -312.994)" fill="#c49047"/>
            <path id="Trazado_285" data-name="Trazado 285" d="M135.178,313.176a22.216,22.216,0,0,0-2.757.051,4.248,4.248,0,0,0-2.234,1.624.936.936,0,0,0-.208.492,7.55,7.55,0,0,1,3.114-1.363,11.177,11.177,0,0,0,3.239-.983A5.531,5.531,0,0,1,135.178,313.176Z" transform="translate(-129.979 -312.995)" fill="#ffdeae"/>
          </g>
          <g id="Grupo_185" data-name="Grupo 185">
            <path id="Trazado_286" data-name="Trazado 286" d="M132.6,308.8l0,0a11.182,11.182,0,0,1-1.784,2.877,7.551,7.551,0,0,0-1.439,3.08,6.482,6.482,0,0,0,2.422-1.874A12.933,12.933,0,0,0,132.6,308.8Z" transform="translate(-129.172 -308.805)" fill="#c49047"/>
            <path id="Trazado_287" data-name="Trazado 287" d="M131.8,309.707a22.1,22.1,0,0,0-2.038,1.859,4.245,4.245,0,0,0-.606,2.694.937.937,0,0,0,.169.507,7.551,7.551,0,0,1,1.439-3.08,11.182,11.182,0,0,0,1.784-2.877A5.5,5.5,0,0,1,131.8,309.707Z" transform="translate(-129.12 -308.806)" fill="#ffdeae"/>
          </g>
        </g>
        <g id="Grupo_189" data-name="Grupo 189" transform="translate(4.783 29.939)">
          <g id="Grupo_187" data-name="Grupo 187" transform="translate(0.587 3.345)">
            <path id="Trazado_288" data-name="Trazado 288" d="M130.491,316.683h-.006a11.19,11.19,0,0,1-3.385.072,7.551,7.551,0,0,0-3.366.473,6.476,6.476,0,0,0,2.892,1.008A12.938,12.938,0,0,0,130.491,316.683Z" transform="translate(-123.734 -315.838)" fill="#c49047"/>
            <path id="Trazado_289" data-name="Trazado 289" d="M129.325,316.328a22.245,22.245,0,0,0-2.669-.694,4.237,4.237,0,0,0-2.589.962.936.936,0,0,0-.333.418,7.551,7.551,0,0,1,3.366-.473,11.187,11.187,0,0,0,3.385-.073A5.489,5.489,0,0,1,129.325,316.328Z" transform="translate(-123.734 -315.622)" fill="#ffdeae"/>
          </g>
          <g id="Grupo_188" data-name="Grupo 188">
            <path id="Trazado_290" data-name="Trazado 290" d="M127.776,311.425l0,0a11.176,11.176,0,0,1-2.494,2.289,7.553,7.553,0,0,0-2.215,2.578,6.475,6.475,0,0,0,2.837-1.152A12.911,12.911,0,0,0,127.776,311.425Z" transform="translate(-123.01 -311.425)" fill="#c49047"/>
            <path id="Trazado_291" data-name="Trazado 291" d="M126.795,312.091a22.377,22.377,0,0,0-2.463,1.241,4.245,4.245,0,0,0-1.309,2.432.93.93,0,0,0,.026.533,7.554,7.554,0,0,1,2.215-2.578,11.175,11.175,0,0,0,2.494-2.289A5.449,5.449,0,0,1,126.795,312.091Z" transform="translate(-122.997 -311.426)" fill="#ffdeae"/>
          </g>
        </g>
        <g id="Grupo_190" data-name="Grupo 190" transform="translate(0.734 34.436)">
          <path id="Trazado_292" data-name="Trazado 292" d="M124.665,318.823h-.006a11.171,11.171,0,0,1-3.346-.518,7.545,7.545,0,0,0-3.4-.12,6.474,6.474,0,0,0,2.672,1.5A12.917,12.917,0,0,0,124.665,318.823Z" transform="translate(-117.916 -317.265)" fill="#c49047"/>
          <path id="Trazado_293" data-name="Trazado 293" d="M123.541,318.287a22.081,22.081,0,0,0-2.507-1.149,4.246,4.246,0,0,0-2.717.5.939.939,0,0,0-.4.354,7.545,7.545,0,0,1,3.4.12,11.173,11.173,0,0,0,3.346.518A5.468,5.468,0,0,1,123.541,318.287Z" transform="translate(-117.916 -317.069)" fill="#ffdeae"/>
        </g>
        <g id="Grupo_191" data-name="Grupo 191" transform="translate(0.17 31.914)">
          <path id="Trazado_294" data-name="Trazado 294" d="M122.03,313.9l0,0a9.78,9.78,0,0,1-2.5,1.593,6.615,6.615,0,0,0-2.3,1.885,5.679,5.679,0,0,0,2.622-.56A11.332,11.332,0,0,0,122.03,313.9Z" transform="translate(-117.211 -313.903)" fill="#c49047"/>
          <path id="Trazado_295" data-name="Trazado 295" d="M121.091,314.33a19.46,19.46,0,0,0-2.313.694,3.714,3.714,0,0,0-1.5,1.9.819.819,0,0,0-.059.464,6.616,6.616,0,0,1,2.3-1.885,9.783,9.783,0,0,0,2.5-1.593A4.806,4.806,0,0,1,121.091,314.33Z" transform="translate(-117.208 -313.904)" fill="#ffdeae"/>
        </g>
        <g id="Grupo_192" data-name="Grupo 192" transform="translate(0 35.319)">
          <path id="Trazado_296" data-name="Trazado 296" d="M119.983,320.1l0,0a5.8,5.8,0,0,1-1.436-1,3.893,3.893,0,0,0-1.549-.823,3.344,3.344,0,0,0,.9,1.3A6.679,6.679,0,0,0,119.983,320.1Z" transform="translate(-116.995 -318.197)" fill="#c49047"/>
          <path id="Trazado_297" data-name="Trazado 297" d="M119.538,319.669a11.533,11.533,0,0,0-.9-1.1,2.188,2.188,0,0,0-1.373-.384.483.483,0,0,0-.266.074,3.893,3.893,0,0,1,1.549.823,5.8,5.8,0,0,0,1.436,1A2.845,2.845,0,0,1,119.538,319.669Z" transform="translate(-116.995 -318.176)" fill="#ffdeae"/>
        </g>
      </g>
    </g>
    <g id="Grupo_218" data-name="Grupo 218" transform="translate(7.512 60.099)">
      <path id="Trazado_298" data-name="Trazado 298" d="M90.165,235.619a47.571,47.571,0,0,0-31.781,22.108c-5.135,8.647-5.863,15.6-3.692,23.846,10.487,41.565,25.381,19.715,45.391,39.969a.365.365,0,0,1,0,.536l-1.522,1.43a.364.364,0,0,1-.517-.016c-12.339-12.355-21.91-7.653-31.725-14.5-8.332-5.886-11.939-18.178-14.212-28.4-2.215-10.024.791-18.975,7.173-27.39.382-.521,1.587-1.952,1.786-2.176C68.9,242.5,78.039,237.011,90.165,235.619Z" transform="translate(-36.546 -224.021)" fill="#c49047"/>
      <g id="Grupo_195" data-name="Grupo 195" transform="translate(6.009 23.356)">
        <path id="Trazado_299" data-name="Trazado 299" d="M45.011,250.374c0,.007,0,.011,0,.018-.068.418-.981,6.417-.071,10.627.946,4.365-1.328,10.587-1.328,10.587s-3.521-5.454-3.3-9.029C40.576,258.273,44.874,250.611,45.011,250.374Z" transform="translate(-40.304 -250.374)" fill="#c49047"/>
        <path id="Trazado_300" data-name="Trazado 300" d="M46.344,254.031a69.513,69.513,0,0,1,2.3,8.345c.335,1.91-1.249,6.442-2.9,8.171a2.94,2.94,0,0,1-1.3,1.064s2.274-6.222,1.328-10.587c-.91-4.21,0-10.21.071-10.627A17.173,17.173,0,0,0,46.344,254.031Z" transform="translate(-41.147 -250.378)" fill="#ffdeae"/>
      </g>
      <g id="Grupo_196" data-name="Grupo 196" transform="translate(12.928 30.604)">
        <path id="Trazado_301" data-name="Trazado 301" d="M55.953,259.469c0,.007,0,.011,0,.018-.141.4-2.1,6.14-1.956,10.446.155,4.463-3.187,10.183-3.187,10.183s-2.5-5.993-1.643-9.471C50.186,266.455,55.776,259.678,55.953,259.469Z" transform="translate(-48.987 -259.469)" fill="#c49047"/>
        <path id="Trazado_302" data-name="Trazado 302" d="M56.252,263.155a69.577,69.577,0,0,1,.787,8.621c-.01,1.939-2.372,6.118-4.3,7.527a2.944,2.944,0,0,1-1.465.818s3.342-5.72,3.187-10.183c-.149-4.306,1.815-10.047,1.956-10.446A17.163,17.163,0,0,0,56.252,263.155Z" transform="translate(-49.451 -259.474)" fill="#ffdeae"/>
      </g>
      <g id="Grupo_197" data-name="Grupo 197" transform="translate(1.594 34.815)">
        <path id="Trazado_303" data-name="Trazado 303" d="M34.764,264.754c0,.006.006.007.008.013.154.325,2.411,4.969,5.082,7.48,2.77,2.6,4.18,8.059,4.18,8.059s-5.1-2.121-6.67-4.734C35.469,272.43,34.782,264.986,34.764,264.754Z" transform="translate(-34.764 -264.754)" fill="#c49047"/>
        <path id="Trazado_304" data-name="Trazado 304" d="M36.872,267.079a59.134,59.134,0,0,1,5.644,4.734c1.157,1.176,2.235,5.116,1.916,7.123a2.5,2.5,0,0,1-.4,1.372s-1.41-5.457-4.18-8.059c-2.67-2.511-4.928-7.154-5.082-7.48A14.7,14.7,0,0,0,36.872,267.079Z" transform="translate(-34.766 -264.757)" fill="#ffdeae"/>
      </g>
      <g id="Grupo_198" data-name="Grupo 198" transform="translate(0 48.005)">
        <path id="Trazado_305" data-name="Trazado 305" d="M32.764,281.306s.009.006.012.011c.239.294,3.717,4.488,7.083,6.392,3.491,1.972,6.306,7.212,6.306,7.212s-5.76-.9-8.023-3.18C35.412,289,32.841,281.539,32.764,281.306Z" transform="translate(-32.764 -281.306)" fill="#c49047"/>
        <path id="Trazado_306" data-name="Trazado 306" d="M35.508,283.161A62.451,62.451,0,0,1,42.48,286.6c1.481.916,3.573,4.683,3.749,6.821a2.644,2.644,0,0,1-.061,1.5s-2.815-5.239-6.306-7.212c-3.366-1.9-6.844-6.1-7.083-6.392A15.521,15.521,0,0,0,35.508,283.161Z" transform="translate(-32.767 -281.309)" fill="#ffdeae"/>
      </g>
      <g id="Grupo_199" data-name="Grupo 199" transform="translate(10.276 42.835)">
        <path id="Trazado_307" data-name="Trazado 307" d="M47.7,274.818a.153.153,0,0,0,0,.018c.028.437.5,6.708,2.4,10.748,1.971,4.188,1.124,11,1.124,11s-4.826-4.688-5.432-8.351C45.055,283.827,47.612,275.089,47.7,274.818Z" transform="translate(-45.659 -274.818)" fill="#c49047"/>
        <path id="Trazado_308" data-name="Trazado 308" d="M49.561,278.4a72.084,72.084,0,0,1,4.269,7.891c.783,1.851.238,6.8-1.023,8.926a3.049,3.049,0,0,1-1.061,1.376s.847-6.813-1.124-11c-1.9-4.039-2.374-10.311-2.4-10.748A17.805,17.805,0,0,0,49.561,278.4Z" transform="translate(-46.18 -274.823)" fill="#ffdeae"/>
      </g>
      <g id="Grupo_200" data-name="Grupo 200" transform="translate(0.533 67.973)">
        <path id="Trazado_309" data-name="Trazado 309" d="M33.433,307.132c.006,0,.011,0,.018,0,.413.147,6.358,2.2,10.82,2.053,4.626-.15,10.545,3.328,10.545,3.328S48.6,315.09,45,314.2C40.658,313.127,33.649,307.316,33.433,307.132Z" transform="translate(-33.433 -306.519)" fill="#c49047"/>
        <path id="Trazado_310" data-name="Trazado 310" d="M37.252,307.157a71.948,71.948,0,0,1,8.936-.794c2.01.014,6.334,2.474,7.79,4.476a3.054,3.054,0,0,1,.843,1.52s-5.919-3.478-10.545-3.328c-4.462.143-10.407-1.906-10.82-2.053A17.871,17.871,0,0,0,37.252,307.157Z" transform="translate(-33.438 -306.363)" fill="#ffdeae"/>
      </g>
      <g id="Grupo_201" data-name="Grupo 201" transform="translate(13.263 62.036)">
        <path id="Trazado_311" data-name="Trazado 311" d="M49.408,298.913c0,.006.008.008.012.014.222.378,3.458,5.77,6.968,8.528,3.64,2.859,5.938,9.328,5.938,9.328s-6.416-2.026-8.6-5.027C51.089,308.15,49.455,299.193,49.408,298.913Z" transform="translate(-49.408 -298.913)" fill="#c49047"/>
        <path id="Trazado_312" data-name="Trazado 312" d="M52.217,301.508a71.9,71.9,0,0,1,7.354,5.137c1.53,1.3,3.262,5.966,3.09,8.437a3.046,3.046,0,0,1-.332,1.706s-2.3-6.469-5.938-9.328c-3.509-2.759-6.746-8.151-6.968-8.528A17.835,17.835,0,0,0,52.217,301.508Z" transform="translate(-49.411 -298.917)" fill="#ffdeae"/>
      </g>
      <g id="Grupo_202" data-name="Grupo 202" transform="translate(25.385 60.685)">
        <path id="Trazado_313" data-name="Trazado 313" d="M66.5,297.217c0,.008,0,.011,0,.018.034.437.592,6.7,2.544,10.715,2.026,4.162,1.269,10.985,1.269,10.985s-4.887-4.624-5.542-8.277C63.982,306.261,66.424,297.49,66.5,297.217Z" transform="translate(-64.619 -297.217)" fill="#c49047"/>
        <path id="Trazado_314" data-name="Trazado 314" d="M68.377,300.778a72.016,72.016,0,0,1,4.373,7.833c.807,1.841.328,6.793-.905,8.94a3.043,3.043,0,0,1-1.043,1.39s.758-6.823-1.269-10.985c-1.952-4.014-2.51-10.278-2.544-10.715A17.894,17.894,0,0,0,68.377,300.778Z" transform="translate(-65.1 -297.222)" fill="#ffdeae"/>
      </g>
      <g id="Grupo_203" data-name="Grupo 203" transform="translate(34.935 66.559)">
        <path id="Trazado_315" data-name="Trazado 315" d="M78.488,304.589c0,.007,0,.011,0,.018.034.437.592,6.7,2.544,10.715,2.026,4.161,1.269,10.985,1.269,10.985s-4.887-4.624-5.542-8.278C75.966,313.632,78.408,304.861,78.488,304.589Z" transform="translate(-76.603 -304.589)" fill="#c49047"/>
        <path id="Trazado_316" data-name="Trazado 316" d="M80.361,308.149a72.1,72.1,0,0,1,4.373,7.833c.807,1.841.328,6.792-.905,8.939a3.048,3.048,0,0,1-1.043,1.391s.757-6.824-1.269-10.985c-1.952-4.015-2.51-10.278-2.544-10.715A17.845,17.845,0,0,0,80.361,308.149Z" transform="translate(-77.084 -304.594)" fill="#ffdeae"/>
      </g>
      <g id="Grupo_204" data-name="Grupo 204" transform="translate(8.21 80.077)">
        <path id="Trazado_317" data-name="Trazado 317" d="M43.066,325.153c.008,0,.012,0,.02,0,.452.081,6.949,1.173,11.534.257,4.755-.951,11.47,1.622,11.47,1.622s-5.981,3.729-9.857,3.427C51.565,330.1,43.321,325.306,43.066,325.153Z" transform="translate(-43.066 -322.284)" fill="#c49047"/>
        <path id="Trazado_318" data-name="Trazado 318" d="M47.044,323.951a75.638,75.638,0,0,1,9.1-2.36c2.08-.331,6.972,1.465,8.821,3.284A3.193,3.193,0,0,1,66.1,326.3s-6.715-2.574-11.47-1.622c-4.585.916-11.082-.176-11.534-.257A18.664,18.664,0,0,0,47.044,323.951Z" transform="translate(-43.071 -321.552)" fill="#ffdeae"/>
      </g>
      <g id="Grupo_205" data-name="Grupo 205" transform="translate(27.273 88.894)">
        <path id="Trazado_319" data-name="Trazado 319" d="M66.989,341.893c.006,0,.009-.006.015-.007.365-.132,5.589-2.07,8.565-4.675,3.085-2.7,9.093-3.647,9.093-3.647s-2.811,5.256-5.782,6.669C75.308,341.938,67.241,341.9,66.989,341.893Z" transform="translate(-66.989 -332.809)" fill="#c49047"/>
        <path id="Trazado_320" data-name="Trazado 320" d="M69.708,339.681a63.917,63.917,0,0,1,5.675-5.566c1.385-1.119,5.729-1.866,7.852-1.312a2.7,2.7,0,0,1,1.431.567s-6.009.945-9.093,3.647c-2.976,2.606-8.2,4.544-8.565,4.675A15.816,15.816,0,0,0,69.708,339.681Z" transform="translate(-66.993 -332.616)" fill="#ffdeae"/>
      </g>
      <g id="Grupo_206" data-name="Grupo 206" transform="translate(42.776 2.835)">
        <path id="Trazado_321" data-name="Trazado 321" d="M103.127,224.622c-.006,0-.008.006-.014.008-.347.139-5.3,2.191-8.063,4.8-2.867,2.709-8.608,3.834-8.608,3.834s2.512-5.154,5.316-6.618C95.131,224.879,102.886,224.627,103.127,224.622Z" transform="translate(-86.443 -224.622)" fill="#c49047"/>
        <path id="Trazado_322" data-name="Trazado 322" d="M100.591,226.663a61.432,61.432,0,0,1-5.253,5.554c-1.29,1.126-5.439,2-7.5,1.545a2.6,2.6,0,0,1-1.4-.494s5.741-1.125,8.608-3.834c2.765-2.612,7.716-4.663,8.063-4.8A15.2,15.2,0,0,0,100.591,226.663Z" transform="translate(-86.443 -224.624)" fill="#ffdeae"/>
      </g>
      <g id="Grupo_207" data-name="Grupo 207" transform="translate(38.53)">
        <path id="Trazado_323" data-name="Trazado 323" d="M90.021,221.065s0,.01-.006.014c-.2.314-3.054,4.852-3.8,8.582-.771,3.868-4.8,8.107-4.8,8.107s-.932-5.657.508-8.473C83.647,225.9,89.827,221.208,90.021,221.065Z" transform="translate(-81.115 -221.065)" fill="#c49047"/>
        <path id="Trazado_324" data-name="Trazado 324" d="M89.207,224.2a61.426,61.426,0,0,1-1.072,7.57c-.4,1.665-3.28,4.777-5.224,5.6a2.6,2.6,0,0,1-1.425.4s4.032-4.239,4.8-8.107c.746-3.73,3.6-8.268,3.8-8.582A15.19,15.19,0,0,0,89.207,224.2Z" transform="translate(-81.191 -221.069)" fill="#ffdeae"/>
      </g>
      <g id="Grupo_208" data-name="Grupo 208" transform="translate(33.321 4.475)">
        <path id="Trazado_325" data-name="Trazado 325" d="M79.055,226.681s0,.008,0,.013a24.944,24.944,0,0,0-1,7.5c.279,3.168-1.881,7.36-1.881,7.36s-2-4.166-1.526-6.671C75.219,231.866,78.937,226.836,79.055,226.681Z" transform="translate(-74.578 -226.681)" fill="#c49047"/>
        <path id="Trazado_326" data-name="Trazado 326" d="M79.484,229.308a49.538,49.538,0,0,1,.885,6.1c.067,1.379-1.455,4.439-2.773,5.514a2.092,2.092,0,0,1-1.01.636s2.16-4.192,1.881-7.36a24.944,24.944,0,0,1,1-7.5A12.241,12.241,0,0,0,79.484,229.308Z" transform="translate(-74.986 -226.684)" fill="#ffdeae"/>
      </g>
      <g id="Grupo_209" data-name="Grupo 209" transform="translate(41.984 14.322)">
        <path id="Trazado_327" data-name="Trazado 327" d="M100.85,239.251c-.006,0-.008,0-.013.006a26.967,26.967,0,0,0-7.514,3.229c-2.786,2.013-7.874,2.33-7.874,2.33s2.759-4.165,5.348-5.111C93.912,238.561,100.64,239.227,100.85,239.251Z" transform="translate(-85.449 -239.037)" fill="#c49047"/>
        <path id="Trazado_328" data-name="Trazado 328" d="M98.426,240.78a53.44,53.44,0,0,1-5.172,4.2c-1.243.826-4.926,1.108-6.655.479a2.262,2.262,0,0,1-1.15-.586s5.088-.317,7.874-2.33a26.968,26.968,0,0,1,7.514-3.229A13.222,13.222,0,0,0,98.426,240.78Z" transform="translate(-85.449 -239.093)" fill="#ffdeae"/>
      </g>
      <g id="Grupo_210" data-name="Grupo 210" transform="translate(34.041 11.752)">
        <path id="Trazado_329" data-name="Trazado 329" d="M85.053,235.813s0,.009-.007.013c-.217.282-3.29,4.365-4.3,7.848-1.043,3.613-5.213,7.316-5.213,7.316s-.432-5.449,1.162-8.009C78.611,239.9,84.857,235.933,85.053,235.813Z" transform="translate(-75.482 -235.813)" fill="#c49047"/>
        <path id="Trazado_330" data-name="Trazado 330" d="M83.971,238.719a58.4,58.4,0,0,1-1.625,7.105c-.515,1.549-3.5,4.275-5.411,4.9a2.478,2.478,0,0,1-1.386.271s4.17-3.7,5.213-7.316c1.007-3.483,4.08-7.566,4.3-7.848A14.494,14.494,0,0,0,83.971,238.719Z" transform="translate(-75.496 -235.816)" fill="#ffdeae"/>
      </g>
      <g id="Grupo_211" data-name="Grupo 211" transform="translate(30.738 23.673)">
        <path id="Trazado_331" data-name="Trazado 331" d="M86.911,250.772c-.006,0-.007.006-.013.008-.324.146-4.965,2.283-7.5,4.873-2.63,2.686-8.058,3.97-8.058,3.97s2.2-5,4.82-6.5C79.3,251.312,86.682,250.785,86.911,250.772Z" transform="translate(-71.337 -250.772)" fill="#c49047"/>
        <path id="Trazado_332" data-name="Trazado 332" d="M84.571,252.81a58.613,58.613,0,0,1-4.8,5.485c-1.188,1.12-5.107,2.106-7.087,1.749a2.48,2.48,0,0,1-1.348-.419s5.428-1.284,8.058-3.97c2.539-2.59,7.179-4.727,7.5-4.873A14.47,14.47,0,0,0,84.571,252.81Z" transform="translate(-71.337 -250.774)" fill="#ffdeae"/>
      </g>
      <g id="Grupo_212" data-name="Grupo 212" transform="translate(22.349 12.094)">
        <path id="Trazado_333" data-name="Trazado 333" d="M63.977,236.242c0,.008,0,.012,0,.019-.01.445-.1,6.833,1.457,11.094,1.614,4.416.139,11.234.139,11.234s-4.458-5.182-4.74-8.943C60.488,245.119,63.868,236.509,63.977,236.242Z" transform="translate(-60.81 -236.242)" fill="#c49047"/>
        <path id="Trazado_334" data-name="Trazado 334" d="M65.821,239.986a73.21,73.21,0,0,1,3.6,8.372c.625,1.944-.375,6.9-1.845,8.939a3.1,3.1,0,0,1-1.2,1.3s1.476-6.817-.139-11.234c-1.556-4.261-1.467-10.65-1.457-11.094A18.144,18.144,0,0,0,65.821,239.986Z" transform="translate(-61.616 -236.247)" fill="#ffdeae"/>
      </g>
      <g id="Grupo_213" data-name="Grupo 213" transform="translate(25.164 20.329)">
        <path id="Trazado_335" data-name="Trazado 335" d="M73.936,246.576c0,.006,0,.011-.006.018-.214.39-3.233,6.021-3.813,10.52-.6,4.664-5.047,10.037-5.047,10.037s-1.573-6.652-.092-10.12C66.752,252.851,73.717,246.762,73.936,246.576Z" transform="translate(-64.342 -246.576)" fill="#c49047"/>
        <path id="Trazado_336" data-name="Trazado 336" d="M73.321,250.378a73.074,73.074,0,0,1-.653,9.091c-.34,2.013-3.508,5.952-5.753,7.088a3.093,3.093,0,0,1-1.662.6s4.448-5.373,5.047-10.037c.58-4.5,3.6-10.129,3.813-10.52A18.171,18.171,0,0,0,73.321,250.378Z" transform="translate(-64.527 -246.58)" fill="#ffdeae"/>
      </g>
      <g id="Grupo_214" data-name="Grupo 214" transform="translate(25.891 34.441)">
        <path id="Trazado_337" data-name="Trazado 337" d="M78.968,264.285c-.006,0-.006.008-.011.012-.3.249-4.531,3.863-6.427,7.329-1.964,3.6-7.276,6.546-7.276,6.546s.831-5.9,3.132-8.242C71.151,267.1,78.731,264.367,78.968,264.285Z" transform="translate(-65.254 -264.285)" fill="#c49047"/>
        <path id="Trazado_338" data-name="Trazado 338" d="M77.116,267.115a63.78,63.78,0,0,1-3.411,7.171c-.914,1.526-4.732,3.719-6.914,3.929a2.693,2.693,0,0,1-1.538-.041s5.312-2.951,7.276-6.546c1.9-3.466,6.13-7.08,6.427-7.329A15.8,15.8,0,0,0,77.116,267.115Z" transform="translate(-65.254 -264.288)" fill="#ffdeae"/>
      </g>
      <g id="Grupo_215" data-name="Grupo 215" transform="translate(20.515 32.524)">
        <path id="Trazado_339" data-name="Trazado 339" d="M58.8,261.879c0,.006,0,.008.006.013a27.371,27.371,0,0,0,3.164,7.672c2,2.857,2.246,8.025,2.246,8.025s-4.185-2.862-5.106-5.5C57.993,268.908,58.769,262.091,58.8,261.879Z" transform="translate(-58.508 -261.879)" fill="#c49047"/>
        <path id="Trazado_340" data-name="Trazado 340" d="M60.33,264.364a54.277,54.277,0,0,1,4.184,5.31c.819,1.273,1.049,5.016.386,6.759a2.3,2.3,0,0,1-.612,1.159s-.245-5.168-2.246-8.025a27.371,27.371,0,0,1-3.164-7.672A13.418,13.418,0,0,0,60.33,264.364Z" transform="translate(-58.583 -261.882)" fill="#ffdeae"/>
      </g>
      <g id="Grupo_216" data-name="Grupo 216" transform="translate(23.305 46.562)">
        <path id="Trazado_341" data-name="Trazado 341" d="M73.382,279.495s0,.007-.009.01a27.391,27.391,0,0,0-5.313,6.377c-1.595,3.1-6.052,5.728-6.052,5.728s.58-5.036,2.488-7.083C66.789,282.061,73.182,279.57,73.382,279.495Z" transform="translate(-62.009 -279.495)" fill="#c49047"/>
        <path id="Trazado_342" data-name="Trazado 342" d="M71.867,281.944a54.286,54.286,0,0,1-2.748,6.177c-.745,1.319-3.948,3.267-5.8,3.494a2.3,2.3,0,0,1-1.31,0s4.457-2.626,6.052-5.728a27.391,27.391,0,0,1,5.313-6.377A13.479,13.479,0,0,0,71.867,281.944Z" transform="translate(-62.009 -279.498)" fill="#ffdeae"/>
      </g>
      <g id="Grupo_217" data-name="Grupo 217" transform="translate(17.858 45.184)">
        <path id="Trazado_343" data-name="Trazado 343" d="M61.12,277.765c0,.007,0,.012,0,.019-.1.443-1.5,6.814-.824,11.395.707,4.749-2.17,11.264-2.17,11.264s-3.394-6.1-2.9-9.918C55.806,285.926,60.957,278.01,61.12,277.765Z" transform="translate(-55.174 -277.765)" fill="#c49047"/>
        <path id="Trazado_344" data-name="Trazado 344" d="M62.141,281.722a74.645,74.645,0,0,1,1.885,9.113c.225,2.073-1.793,6.823-3.683,8.562a3.16,3.16,0,0,1-1.465,1.05s2.877-6.515,2.17-11.264c-.68-4.581.722-10.952.824-11.395A18.562,18.562,0,0,0,62.141,281.722Z" transform="translate(-55.926 -277.77)" fill="#ffdeae"/>
      </g>
    </g>
  </g>
</svg>
