<svg id="Componente_49_1" data-name="Componente 49 – 1" xmlns="http://www.w3.org/2000/svg" width="32.284" height="32.243" viewBox="0 0 32.284 32.243">
  <path id="Trazado_389" data-name="Trazado 389" d="M-711.866,725.2q-6.288,0-12.577,0a3.391,3.391,0,0,1-3.143-1.73,2.721,2.721,0,0,1-.065-2.741,14.222,14.222,0,0,1,6.912-6.433,4.877,4.877,0,0,1,2.211-.684,4.01,4.01,0,0,1,1.841.475,9.619,9.619,0,0,0,9.756-.039,3.616,3.616,0,0,1,3.329-.207,14.844,14.844,0,0,1,7.413,6.371,3.294,3.294,0,0,1-2.951,4.992c-2.455-.019-4.91,0-7.365,0Z" transform="translate(727.989 -692.959)" fill="#015287"/>
  <path id="Trazado_390" data-name="Trazado 390" d="M-613.336,441.29a7.413,7.413,0,0,1,5.9,3.173,11.009,11.009,0,0,1-.467,13.561,6.894,6.894,0,0,1-7.45,2.314,7.667,7.667,0,0,1-4.894-4.314,10.754,10.754,0,0,1,1.141-11.855A7.107,7.107,0,0,1-613.336,441.29Z" transform="translate(629.555 -441.29)" fill="#015287"/>
</svg>
