<svg id="Componente_50_1" data-name="Componente 50 – 1" xmlns="http://www.w3.org/2000/svg" width="32.287" height="32.243" viewBox="0 0 32.287 32.243">
  <path id="Trazado_391" data-name="Trazado 391" d="M1051.415,791.734c.109-.437.2-.88.329-1.311a4.988,4.988,0,0,1,.825-1.591,1.191,1.191,0,0,1,1.588-.488c.073.024.144.053.217.076a3.765,3.765,0,0,0,3.918-.741,3,3,0,0,0,.843-1.8,5.333,5.333,0,0,0-.1-2.49,1.183,1.183,0,0,1,.432-1.293,5.163,5.163,0,0,1,2.141-1.089,9.245,9.245,0,0,1,1.173-.235,1.08,1.08,0,0,1,1.35.788,4.093,4.093,0,0,0,1.544,1.909,3.511,3.511,0,0,0,3.836-.087,3.825,3.825,0,0,0,1.371-1.672,1.393,1.393,0,0,1,.989-.95,2.5,2.5,0,0,1,.867.066,5.238,5.238,0,0,1,2.46,1.092c.135.114.253.247.382.368a1.244,1.244,0,0,1,.27,1.57,3.479,3.479,0,0,0-.121,2.589,3.33,3.33,0,0,0,3.553,2.318,4.5,4.5,0,0,0,1.705-.45,1.117,1.117,0,0,1,1.323.3,3.6,3.6,0,0,1,.805,1.336,17.573,17.573,0,0,1,.536,1.879c.182.843-.112,1.274-.909,1.622a3.751,3.751,0,0,0-2.3,2.677,3.472,3.472,0,0,0,1.988,3.939,1.678,1.678,0,0,1,1.159,2.139,5.952,5.952,0,0,1-.933,2.313,1.856,1.856,0,0,1-2.2.789,4.594,4.594,0,0,0-2.386-.17,2.939,2.939,0,0,0-2.4,2.326,3.335,3.335,0,0,0,.193,2.391,1.443,1.443,0,0,1-.544,1.947,6.553,6.553,0,0,1-3.089,1.174,1.088,1.088,0,0,1-1.126-.6c-.226-.383-.394-.8-.649-1.164a3.317,3.317,0,0,0-3.827-1.484,3.687,3.687,0,0,0-2.421,2.221,1.471,1.471,0,0,1-1.812,1,6.882,6.882,0,0,1-3.319-1.458c-.053-.044-.1-.094-.151-.143a1.2,1.2,0,0,1-.31-1.409,6.615,6.615,0,0,0,.4-1.221,3.142,3.142,0,0,0-1.057-3.038,2.706,2.706,0,0,0-1.624-.576,5.368,5.368,0,0,0-2.073.24,1.409,1.409,0,0,1-1.636-.539,6.5,6.5,0,0,1-1.162-2.9.851.851,0,0,0-.04-.128v-.462a.436.436,0,0,0,.042-.1,1.108,1.108,0,0,1,.742-.965,4.755,4.755,0,0,0,2.031-1.623,3.07,3.07,0,0,0,.029-3.643,5.125,5.125,0,0,0-2.09-1.625,1.161,1.161,0,0,1-.471-.41,3.768,3.768,0,0,1-.283-.693Zm16.082-2.413a7.523,7.523,0,1,0,7.553,7.791A7.513,7.513,0,0,0,1067.5,789.321Z" transform="translate(-1051.415 -780.741)" fill="#015287"/>
</svg>
