<svg id="Componente_7_36" data-name="Componente 7 – 36" xmlns="http://www.w3.org/2000/svg" width="33.733" height="31.635" viewBox="0 0 33.733 31.635">
  <path id="Trazado_189" data-name="Trazado 189" d="M799.928,240.9v-1.852q0-3.374,0-6.749a1.384,1.384,0,0,0-.928-1.458,1.431,1.431,0,0,0-.486-.077q-1.912-.009-3.825,0a1.341,1.341,0,0,0-1.375,1.37q0,4.183,0,8.366v.4h-.392c-2.395,0-4.79-.029-7.184.014a1.771,1.771,0,0,1-1.844-1.845c.014-3.151.009-6.3,0-9.454a11.638,11.638,0,0,0-.1-1.262,1.6,1.6,0,0,1,.436-1.395q5.5-5.5,11-10.993a1.637,1.637,0,0,1,2.3.061q3.993,3.99,7.983,7.982,1.716,1.714,3.442,3.417a1.729,1.729,0,0,1,.46,2.135.889.889,0,0,0-.045.363c0,3.048-.027,6.1.012,9.143a1.792,1.792,0,0,1-1.863,1.85c-2.394-.049-4.789-.015-7.184-.015Z" transform="translate(-779.473 -209.28)" fill="#015287"/>
  <path id="Trazado_190" data-name="Trazado 190" d="M785.15,197.125c-.649.657-1.254,1.276-1.866,1.887q-6.067,6.062-12.137,12.12a1.6,1.6,0,0,1-2.284-.018,1.692,1.692,0,0,1,0-2.564q5.615-5.559,11.187-11.161c1.278-1.277,2.567-2.544,3.821-3.845a1.813,1.813,0,0,1,2.523.007q7.506,7.555,15.052,15.07a1.717,1.717,0,0,1-2.422,2.434q-6.817-6.815-13.632-13.633C785.313,197.344,785.249,197.247,785.15,197.125Z" transform="translate(-768.275 -193.037)" fill="#015287"/>
  <path id="Trazado_191" data-name="Trazado 191" d="M853.72,202.024c-.089-.082-.159-.142-.224-.207q-2.33-2.33-4.664-4.656a.693.693,0,0,1-.242-.6c.018-.195,0-.393.006-.59a1.547,1.547,0,0,1,1.544-1.6c.754-.027,1.512-.009,2.266.029a1.535,1.535,0,0,1,1.349,1.4c.013,2.041,0,4.083,0,6.124A.455.455,0,0,1,853.72,202.024Z" transform="translate(-826.285 -193.991)" fill="#015287"/>
</svg>
