<svg id="Componente_21_3" data-name="Componente 21 – 3" xmlns="http://www.w3.org/2000/svg" width="28.158" height="32.85" viewBox="0 0 28.158 32.85">
  <path id="Trazado_188" data-name="Trazado 188" d="M903.029,218.219h1.713c.234,0,.468.012.7,0a.74.74,0,0,0,.591-1.116.981.981,0,0,1-.917.349c-.934-.009-1.868,0-2.8-.007a.781.781,0,1,1-.092-1.559c.261-.006.521,0,.808,0V213.54c.09,0,.167-.012.243-.012.7,0,1.4.006,2.1,0a.744.744,0,0,0,.665-1.12c-.282.412-.705.344-1.109.345-.876,0-1.752.006-2.627,0a.779.779,0,0,1-.845-.758.767.767,0,0,1,.774-.8c.254-.009.508,0,.8,0v-2.351h.985c.46,0,.92.01,1.379,0a.744.744,0,0,0,.646-1.12,1.026,1.026,0,0,1-.96.347c-.948-.009-1.9,0-2.846-.01a.769.769,0,0,1-.731-1.035.745.745,0,0,1,.67-.513,5.068,5.068,0,0,1,.613,0c.188.014.254-.039.249-.24-.014-.583,0-1.167,0-1.751v-.363h.246c.693,0,1.386.006,2.08,0a.771.771,0,0,0,.746-1.039.65.65,0,0,0-.061-.089.994.994,0,0,1-.922.353c-.956-.011-1.912,0-2.868-.008a.764.764,0,0,1-.787-.872.78.78,0,0,1,.779-.69c.182-.011.365,0,.547,0h.241v-2.341h.254c.693,0,1.387.007,2.08,0a.751.751,0,0,0,.674-1.129c-.242.362-.606.355-.977.353-.927-.006-1.854,0-2.78,0a.784.784,0,1,1-.029-1.567c.247-.008.5,0,.777,0v-.269c0-1.226-.008-2.452,0-3.678a2.271,2.271,0,0,1,2.3-2.306c1.854-.009,3.707,0,5.561,0h7.881c2.846,0,5.692-.005,8.538.005a2.266,2.266,0,0,1,2.3,2.333q0,12.238,0,24.476,0,1.828,0,3.656a2.269,2.269,0,0,1-2.348,2.371c-1.656.011-3.313,0-4.969,0h-7.9c-3.006,0-6.013.006-9.02,0a2.264,2.264,0,0,1-2.343-2.353c0-.941,0-1.883,0-2.824Zm21.1-12.522v-7.792h-12.49V205.7Zm-12.488,4.7h12.49v-1.543h-12.49Zm0,6.248H924.13v-1.534H911.641Zm0-3.133h12.486v-1.524H911.641Z" transform="translate(-901.458 -190.851)" fill="#015287"/>
</svg>
