<svg id="Grupo_125" data-name="Grupo 125" xmlns="http://www.w3.org/2000/svg" width="31.339" height="31.319" viewBox="0 0 31.339 31.319">
  <path id="Trazado_196" data-name="Trazado 196" d="M1405.554,217.824c.436.03.529-.125.528-.542q-.019-10.51-.012-21.02a5.228,5.228,0,0,0-.06-.793,2.657,2.657,0,0,0-2.137-2.157v24.5C1404.444,217.815,1405,217.786,1405.554,217.824Z" transform="translate(-1374.743 -193.212)" fill="#015287"/>
  <path id="Trazado_197" data-name="Trazado 197" d="M1323.58,196.938a1.664,1.664,0,0,0-1.822-1.748c-.5,0-1,0-1.534,0,0-.576.008-1.092,0-1.607-.009-.437-.289-.695-.656-.614s-.448.338-.447.662c0,.51,0,1.021,0,1.523h-2.255c0-.525,0-1.014,0-1.5,0-.446-.2-.695-.547-.7s-.547.247-.551.692c0,.5,0,1,0,1.515h-2.258c0-.514,0-1,0-1.487s-.205-.73-.565-.72c-.341.01-.53.257-.533.709,0,.5,0,.995,0,1.492h-2.256c0-.508,0-.982,0-1.457s-.189-.739-.543-.744-.557.251-.56.727,0,.971,0,1.482h-2.256c0-.525,0-1.024,0-1.525,0-.443-.212-.691-.559-.684s-.536.253-.54.7c0,.5,0,1,0,1.5h-2.256c0-.518,0-1.006,0-1.494,0-.451-.194-.7-.535-.71-.359-.011-.565.247-.568.719s0,.973,0,1.515H1301c-1.417,0-2.029.6-2.029,2.007q0,12.55,0,25.1a1.733,1.733,0,0,0,1.986,1.975h20.609c1.4,0,2.017-.623,2.017-2.028V197.651C1323.584,197.413,1323.591,197.175,1323.58,196.938Zm-18.483,6.056a1.663,1.663,0,0,1,.293-.007h11.753c.056,0,.112,0,.168,0,.432.016.684.224.69.571.007.363-.254.588-.711.589q-3.022.005-6.044,0h-5.792a2.331,2.331,0,0,1-.336,0c-.325-.047-.554-.212-.561-.566S1304.774,203.053,1305.1,202.994Zm-2.282,4.5c.25-.02.5-.009.755-.009h7.766c2.771,0,5.541.005,8.311-.006a.548.548,0,0,1,.6.558c.034.342-.21.526-.537.578a2.14,2.14,0,0,1-.336.009l-10.071,0h-6.042a2.646,2.646,0,0,1-.461-.016.534.534,0,0,1-.484-.587A.518.518,0,0,1,1302.815,207.49Zm13.576,5.59c-.221.022-.447.009-.67.009l-9.221.006a2.4,2.4,0,0,1-.334-.014.564.564,0,0,1,0-1.118,3.517,3.517,0,0,1,.5-.014h9.347a1.951,1.951,0,0,1,.417.021.531.531,0,0,1,.451.572A.522.522,0,0,1,1316.391,213.081Zm2.926-2.209q-4.609-.007-9.217,0-3.521,0-7.043,0c-.3,0-.635-.057-.693-.408a.86.86,0,0,1,.189-.62.79.79,0,0,1,.538-.146c1.648-.009,3.3,0,4.944,0h3.269v.007q4.022,0,8.044,0c.615,0,.9.19.9.576C1320.253,210.687,1319.933,210.872,1319.317,210.871Z" transform="translate(-1298.97 -192.953)" fill="#015287"/>
  <path id="Trazado_198" data-name="Trazado 198" d="M1392.146,287.227a15.135,15.135,0,0,0,.937,1.439,2.809,2.809,0,0,1,.763,2.088c-.05.322.215.517.535.513a.511.511,0,0,0,.526-.5.789.789,0,0,0,0-.209,1.911,1.911,0,0,1,.451-1.466c.425-.571.8-1.176,1.186-1.777a3.191,3.191,0,0,0,.542-1.592h-5.557A15.376,15.376,0,0,0,1392.146,287.227Z" transform="translate(-1365.829 -259.964)" fill="#015287"/>
  <path id="Trazado_199" data-name="Trazado 199" d="M1391.754,217.729c.585,0,1.144-.022,1.7.007.383.02.5-.1.492-.491-.022-2.683-.023-5.366-.023-8.048q0-7.719.014-15.438v-.565c-.161.038-.255.054-.344.083a2.75,2.75,0,0,0-1.87,2.621q-.007,10.761,0,21.522C1391.721,217.512,1391.74,217.6,1391.754,217.729Z" transform="translate(-1365.964 -193.127)" fill="#015287"/>
</svg>
