<svg id="Componente_43_1" data-name="Componente 43 – 1" xmlns="http://www.w3.org/2000/svg" width="49.372" height="32.85" viewBox="0 0 49.372 32.85">
  <path id="Trazado_380" data-name="Trazado 380" d="M704.922-76.919c.216-.272.39-.517.59-.738.455-.5.958-.963,1.38-1.49a13.14,13.14,0,0,0,2.728-6.38.7.7,0,0,0-.37-.813,2.311,2.311,0,0,1,.11-3.937c.261-.147.285-.388.319-.635.082-.582.137-1.169.248-1.744a9.034,9.034,0,0,1,1.722-4.064,2.437,2.437,0,0,0,.132-.214c-.318-.127-.619-.27-.933-.368-1.146-.358-2.3-.693-3.445-1.054a6.109,6.109,0,0,1-1.034-.426.825.825,0,0,1-.041-1.547,4.18,4.18,0,0,1,.829-.361q4.849-1.572,9.7-3.132,5.663-1.831,11.322-3.671c.347-.113.688-.244,1.031-.366a2.509,2.509,0,0,1,1.652.026q3.772,1.215,7.543,2.434,6.551,2.122,13.1,4.246c.55.178,1.112.319,1.659.5a2.9,2.9,0,0,1,.735.37.831.831,0,0,1-.008,1.415,3.8,3.8,0,0,1-.921.409q-5.827,1.887-11.658,3.761c-3.327,1.076-6.659,2.134-9.97,3.257a3.6,3.6,0,0,1-2.41.034c-3.845-1.265-7.7-2.5-11.55-3.75-.05-.016-.1-.04-.195-.078.192-.091.346-.175.507-.238,2.329-.909,4.65-1.838,6.991-2.715,1.732-.648,3.493-1.22,5.235-1.84a3.261,3.261,0,0,0,.823-.43,1.144,1.144,0,0,0,.236-1.516.833.833,0,0,0-.635-.347,3.121,3.121,0,0,0-1.468.211c-2.548.932-5.1,1.859-7.636,2.82q-2.458.931-4.879,1.96a10.505,10.505,0,0,0-1.75.964,5.666,5.666,0,0,0-2.307,3.688c-.136.616-.233,1.241-.341,1.864a.7.7,0,0,0,.287.7,2.29,2.29,0,0,1,.247,3.461,1.088,1.088,0,0,0-.282,1,25.97,25.97,0,0,1,.345,4.925,6.541,6.541,0,0,1-1.958,4.681,2.994,2.994,0,0,1-1.507.866,1.562,1.562,0,0,1-.687,0A12.887,12.887,0,0,1,704.922-76.919Z" transform="translate(-704.922 107.988)" fill="#015287"/>
  <path id="Trazado_381" data-name="Trazado 381" d="M769.715-3.663a7.473,7.473,0,0,1,.391-.644,3.713,3.713,0,0,0-.278-4.464,3.541,3.541,0,0,0-.743-.6.3.3,0,0,1-.162-.292,10.036,10.036,0,0,1,.358-2.511,1.834,1.834,0,0,1,.278.045c1.413.458,2.823.925,4.238,1.377q4.538,1.45,9.081,2.885c.3.1.625.144.931.235a3.079,3.079,0,0,0,1.886-.124q3-.989,6.008-1.976,3.664-1.2,7.33-2.4c.251-.082.514-.13.779-.2a.984.984,0,0,1,.021.131q0,3.142-.008,6.284a3.235,3.235,0,0,1-1.025,2.36,9.337,9.337,0,0,1-3.132,1.95A26.543,26.543,0,0,1,788.944.036a35.089,35.089,0,0,1-6.644.2,30.038,30.038,0,0,1-8.937-1.7A11.662,11.662,0,0,1,769.715-3.663Z" transform="translate(-759.188 26.876)" fill="#015287"/>
</svg>
