<svg id="Componente_45_1" data-name="Componente 45 – 1" xmlns="http://www.w3.org/2000/svg" width="36.958" height="32.85" viewBox="0 0 36.958 32.85">
  <path id="Trazado_382" data-name="Trazado 382" d="M-237.88,281.816a10.266,10.266,0,0,1-9.817-11.082,10.214,10.214,0,0,1,10.705-9.626,10.255,10.255,0,0,1,9.358,11.1A10.141,10.141,0,0,1-237.88,281.816Zm-1.469-5.191,7.136-7.355-2.379-2.219-4.867,4.462-1.793-1.845-2.722,2.145Z" transform="translate(264.567 -261.092)" fill="#015287"/>
  <path id="Trazado_383" data-name="Trazado 383" d="M-356.869,311.741c-.125,1.067-.214,2.06-.385,3.039-.026.148-.432.326-.663.328-2.877.022-5.755.015-8.633.015h-.788v19.056h21.881v-5.194h3.224c0,2.024.121,4.012-.038,5.976-.13,1.609-1.7,2.663-3.546,2.666q-5.961.01-11.921,0-4.556,0-9.112,0c-2.461,0-3.84-1.393-3.841-3.874,0-6.053.021-12.107-.012-18.16a3.58,3.58,0,0,1,3.844-3.875c3.057.093,6.12.023,9.18.023Z" transform="translate(370.704 -304.781)" fill="#015287"/>
  <path id="Trazado_384" data-name="Trazado 384" d="M-297.415,416.251h-11.636V412.9c.239-.012.48-.035.72-.035,2.623,0,5.247.015,7.87-.013a2.152,2.152,0,0,1,1.742.572,1.72,1.72,0,0,0,.222.158C-297.232,414.547-297.232,414.547-297.415,416.251Z" transform="translate(317.498 -392.063)" fill="#015287"/>
  <path id="Trazado_385" data-name="Trazado 385" d="M-311.676,378.217h-9.455v-3.372h1.241c1.893,0,3.785.019,5.678-.012a.983.983,0,0,1,1.035.566C-312.7,376.326-312.2,377.238-311.676,378.217Z" transform="translate(327.923 -359.25)" fill="#015287"/>
</svg>
