<svg xmlns="http://www.w3.org/2000/svg" width="31.433" height="31.433" viewBox="0 0 31.433 31.433">
  <g id="Grupo_688" data-name="Grupo 688" transform="translate(-1572.529 -1203.842)">
    <g id="Grupo_3" data-name="Grupo 3" transform="translate(1572.529 1203.842)">
      <path id="Trazado_166" data-name="Trazado 166" d="M8.372,0h14.69a8.372,8.372,0,0,1,8.372,8.372v14.69a8.372,8.372,0,0,1-8.372,8.372H8.372A8.372,8.372,0,0,1,0,23.062V8.372A8.372,8.372,0,0,1,8.372,0Z" transform="translate(0)" fill="#015287"/>
    </g>
    <g id="wtfaAx" transform="translate(1578.616 1209.842)">
      <g id="Grupo_1" data-name="Grupo 1" transform="translate(0 0)">
        <path id="Trazado_1" data-name="Trazado 1" d="M1267.51,139.21c-1.639,0-3.169-.047-4.694.021a1.488,1.488,0,0,1-1.475-.794c-1.438-2.162-2.928-4.288-4.4-6.427-.074-.108-.161-.207-.275-.353-.779.9-1.539,1.779-2.295,2.659-1.314,1.529-2.618,3.067-3.948,4.581a1.15,1.15,0,0,1-.67.3,9.813,9.813,0,0,1-1.231.013l7.42-8.648-7.364-10.707c.175-.019.3-.044.417-.044,1.583,0,3.167.01,4.75-.01a.716.716,0,0,1,.678.378c1.528,2.242,3.07,4.473,4.637,6.749.676-.783,1.336-1.544,1.993-2.307,1.3-1.516,2.6-3.038,3.915-4.544a.885.885,0,0,1,.539-.255c.395-.039.8-.012,1.33-.012L1259.8,128Zm-2.457-1.289-3.059-4.444q-4.146-6.026-8.294-12.05c-.088-.127-.224-.309-.343-.313-.753-.029-1.507-.015-2.336-.015.1.158.143.226.189.292q2.262,3.291,4.525,6.582,3.3,4.791,6.6,9.577a.79.79,0,0,0,.474.354C1263.522,137.944,1264.237,137.922,1265.053,137.922Z" transform="translate(-1248.522 -119.8)" fill="#fff"/>
      </g>
    </g>
  </g>
</svg>
