<svg id="Grupo_3" data-name="Grupo 3" xmlns="http://www.w3.org/2000/svg" width="31.433" height="31.433" viewBox="0 0 31.433 31.433">
  <path id="Trazado_166" data-name="Trazado 166" d="M8.372,0h14.69a8.372,8.372,0,0,1,8.372,8.372v14.69a8.372,8.372,0,0,1-8.372,8.372H8.372A8.372,8.372,0,0,1,0,23.062V8.372A8.372,8.372,0,0,1,8.372,0Z" transform="translate(0)" fill="#015287"/>
  <g id="Grupo_2" data-name="Grupo 2" transform="translate(7.432 8.834)">
    <path id="Trazado_13" data-name="Trazado 13" d="M835.314,217.4a6.991,6.991,0,0,1-1.712.489c.275-.046.68-.545.842-.747a3.147,3.147,0,0,0,.568-1.036c.015-.03.026-.066,0-.089a.1.1,0,0,0-.091.008,8.72,8.72,0,0,1-2.03.777.136.136,0,0,1-.14-.037,1.667,1.667,0,0,0-.177-.181,3.6,3.6,0,0,0-.984-.6,3.418,3.418,0,0,0-1.508-.243,3.592,3.592,0,0,0-1.431.4,3.7,3.7,0,0,0-1.155.943,3.536,3.536,0,0,0-.689,1.381,3.751,3.751,0,0,0-.037,1.458c.011.081,0,.092-.07.081a10.844,10.844,0,0,1-6.977-3.551c-.081-.093-.126-.093-.192.007a3.538,3.538,0,0,0,.6,4.18c.136.129.277.259.428.377a3.559,3.559,0,0,1-1.346-.377c-.082-.051-.123-.022-.13.071a2.171,2.171,0,0,0,.023.4,3.575,3.575,0,0,0,2.2,2.852,2.059,2.059,0,0,0,.447.137,3.991,3.991,0,0,1-1.32.041c-.1-.018-.132.03-.1.122a3.714,3.714,0,0,0,2.774,2.323c.126.023.252.023.377.051-.007.011-.015.011-.022.023a4.392,4.392,0,0,1-1.895,1,6.785,6.785,0,0,1-2.877.369c-.155-.023-.187-.021-.229,0s-.005.063.044.1c.2.13.4.245.6.356a9.524,9.524,0,0,0,1.924.77,10.246,10.246,0,0,0,9.945-2.325,10.439,10.439,0,0,0,2.752-7.614c0-.11.129-.17.206-.227a6.712,6.712,0,0,0,1.354-1.408.429.429,0,0,0,.09-.27V217.4C835.384,217.351,835.383,217.365,835.314,217.4Z" transform="translate(-818.452 -215.726)" fill="#fff"/>
  </g>
</svg>
