<svg xmlns="http://www.w3.org/2000/svg" width="23.923" height="13.073" viewBox="0 0 23.923 13.073">
  <g id="Grupo_321" data-name="Grupo 321" transform="translate(-468.412 -632.854)">
    <path id="Trazado_360" data-name="Trazado 360" d="M492.335,639.4a21.121,21.121,0,0,1-7.667,5.643,11.136,11.136,0,0,1-9.009-.146,21.217,21.217,0,0,1-7.247-5.426c.013-.078.006-.13.028-.155a18.837,18.837,0,0,1,9.413-6.152,11.456,11.456,0,0,1,8.518,1.386A22.113,22.113,0,0,1,492.335,639.4Zm-6.668.009a5.326,5.326,0,1,0-5.372,5.311A5.309,5.309,0,0,0,485.667,639.412ZM474.774,643.3l.174-.17a6.743,6.743,0,0,1,.054-7.6,21.243,21.243,0,0,0-5.119,3.98Zm10.958-.066a20.538,20.538,0,0,0,4.941-3.83,18.3,18.3,0,0,0-4.873-3.738C487.258,639.366,487.257,639.889,485.732,643.232Z" fill="#015287"/>
    <path id="Trazado_361" data-name="Trazado 361" d="M544.544,660.571c-.654.081-1.13.327-1.231.975a1,1,0,0,0,.576,1.118,1.1,1.1,0,0,0,1.459-.415,3.112,3.112,0,0,1-1.872,3.554,3.268,3.268,0,0,1-3.27-5.6A3.207,3.207,0,0,1,544.544,660.571Z" transform="translate(-61.859 -23.397)" fill="#015287"/>
  </g>
</svg>
