<svg xmlns="http://www.w3.org/2000/svg" width="24.416" height="20.916" viewBox="0 0 24.416 20.916">
  <g id="Grupo_513" data-name="Grupo 513" transform="translate(-537.989 -1081.524)">
    <path id="Trazado_411" data-name="Trazado 411" d="M550.2,1102.44q-5.173,0-10.345,0c-1.271,0-1.863-.585-1.863-1.844q0-8.611,0-17.222a1.616,1.616,0,0,1,1.858-1.849h20.691c1.271,0,1.863.584,1.864,1.844q0,8.611,0,17.222a1.617,1.617,0,0,1-1.859,1.849Q555.371,1102.442,550.2,1102.44Zm10.456-4.333c0-4.779,0-9.4-.005-14.025,0-.6-.289-.83-.977-.83q-9.475,0-18.95,0c-.753,0-.995.247-.995,1q0,6.626,0,13.252c0,.144.029.288.056.536l6.637-8a1.274,1.274,0,0,1,2.219-.069c.875.933,1.732,1.884,2.6,2.82.718.772,1.062.787,1.881.1.222-.185.435-.381.661-.56.686-.544,1.025-.515,1.635.14.535.574,1.064,1.152,1.6,1.726C558.2,1095.473,559.377,1096.736,560.655,1098.108Z" transform="translate(0 0)" fill="#015287"/>
    <path id="Trazado_412" data-name="Trazado 412" d="M667.473,1114.933a2.531,2.531,0,0,1-2.581-2.638,2.569,2.569,0,0,1,2.623-2.552,2.615,2.615,0,0,1,2.572,2.626A2.578,2.578,0,0,1,667.473,1114.933Z" transform="translate(-111.182 -24.723)" fill="#015287"/>
  </g>
</svg>
